<svg xmlns="http://www.w3.org/2000/svg" viewBox="0 0 40 40"><defs><style>.cls-1{fill:#462e1e;}.cls-2,.cls-3,.cls-4{fill:#fff;}.cls-2{stroke:#fff;}.cls-2,.cls-4{stroke-miterlimit:10;stroke-width:0.21px;}.cls-4{stroke:#462e1e;}</style></defs><g id="Calque_2" data-name="Calque 2"><g id="Calque_1-2" data-name="Calque 1"><circle class="cls-1" cx="20" cy="20" r="20"/><rect class="cls-2" x="10.46" y="10.75" width="19.89" height="0.02"/><rect class="cls-2" x="9.98" y="29.3" width="19.89" height="0.02"/><path class="cls-3" d="M26.82,19.73l-.44.32-4.24,3.18-2,1.52-.06.05s-.07,0-.11,0l-.66-.49-4.62-3.47-1.41-1.06-.07-.05,0,0s0-.08,0-.11V12.33l.07.05,3.21,2.41,3.28,2.46.19.15c.06,0,.06,0,.12,0l.9-.67,4.05-3,1.74-1.31a.18.18,0,0,1,.07-.05v7.39Z"/><path class="cls-3" d="M13.16,19.7l0,0v9.54c0,.14,0,.12-.12.12H9.21a1.63,1.63,0,0,1-1.53-1,1.5,1.5,0,0,1-.17-.72V15.56a.33.33,0,0,1,0-.1l.07,0,5.05,3.79Z"/><path class="cls-3" d="M26.82,19.73h0a.1.1,0,0,0,.05,0l1.95-1.46,2.89-2.17.78-.58a.31.31,0,0,1,0,.1V27.71a1.71,1.71,0,0,1-1.37,1.65,2,2,0,0,1-.35,0H26.93c-.13,0-.11,0-.11-.1V19.73Z"/><path class="cls-4" d="M32.49,15.47l-.78.58-2.89,2.17-1.95,1.46a.1.1,0,0,1-.05,0V12.33c.15-.13.31-.24.47-.36l1.13-.84a2.46,2.46,0,0,1,1.8-.5,2.56,2.56,0,0,1,2.24,2.09,2.42,2.42,0,0,1,0,.47v2.18A.38.38,0,0,1,32.49,15.47Z"/><path class="cls-4" d="M13.16,19.7l-.53-.4L7.58,15.51l-.07,0s0-.06,0-.09c0-.73,0-1.46,0-2.2a2.43,2.43,0,0,1,1.43-2.28,2.42,2.42,0,0,1,2.62.22c.54.38,1.06.79,1.59,1.19l0,0v7.26S13.2,19.67,13.16,19.7Z"/></g></g></svg>