<svg xmlns="http://www.w3.org/2000/svg" viewBox="0 0 24 24"><defs><style>.cls-1{fill:#462e1e;}.cls-2,.cls-3,.cls-4{fill:#fff;}.cls-2{stroke:#fff;}.cls-2,.cls-4{stroke-miterlimit:10;stroke-width:0.17px;}.cls-4{stroke:#462e1e;}</style></defs><g id="Calque_2" data-name="Calque 2"><g id="Calque_1-2" data-name="Calque 1"><path class="cls-1" d="M24,5.58a6.42,6.42,0,0,0-.17-1.51,4.68,4.68,0,0,0-.48-1.29l0-.07a4.61,4.61,0,0,0-1-1.27A4.88,4.88,0,0,0,20.3.3,7.2,7.2,0,0,0,19.09.06c-.5,0-1,0-1.53,0H7.46C6.64,0,5.83,0,5,.05A6.1,6.1,0,0,0,3.9.24,5.1,5.1,0,0,0,1.25,1.9a5.06,5.06,0,0,0-1,1.85A7.28,7.28,0,0,0,0,5.29c0,.94,0,1.89,0,2.83V12c0,1.71,0,3.41,0,5.12,0,.58,0,1.16,0,1.74A6.48,6.48,0,0,0,.22,20v0a5.24,5.24,0,0,0,.54,1.32,5,5,0,0,0,2.42,2.15A6.94,6.94,0,0,0,5.69,24c.63,0,1.26,0,1.9,0H15.9c1.08,0,2.16,0,3.24-.08a5.52,5.52,0,0,0,1.34-.29,3.32,3.32,0,0,0,.62-.24,5,5,0,0,0,1.81-1.51,4.91,4.91,0,0,0,.82-1.65c0-.05,0-.1,0-.15a7.53,7.53,0,0,0,.22-2C24,13.91,24,9.75,24,5.58Z"/><rect class="cls-2" x="4.27" y="4.33" width="16.35" height="0.01"/><rect class="cls-2" x="3.87" y="19.57" width="16.35" height="0.01"/><path class="cls-3" d="M17.72,11.71c-.13.08-.24.17-.36.26l-3.49,2.62-1.66,1.24-.05.05s-.06,0-.09,0l-.54-.41-3.8-2.85-1.15-.87-.07,0,0,0s0-.06,0-.09v-6l.06,0,2.64,2,2.69,2,.17.12s0,0,.09,0l.74-.55,3.33-2.5,1.43-1.08s0,0,.06,0V11.7Z"/><path class="cls-3" d="M6.49,11.68l0,0v7.84c0,.12,0,.1-.1.1-1,0-2.11,0-3.17,0A1.36,1.36,0,0,1,2,18.86a1.2,1.2,0,0,1-.14-.59v-10a.25.25,0,0,1,0-.08l0,0,4.15,3.12Z"/><path class="cls-3" d="M17.72,11.71h0l0,0,1.6-1.2,2.38-1.79.64-.48a.28.28,0,0,1,0,.09v10a1.4,1.4,0,0,1-1.13,1.35,1.36,1.36,0,0,1-.29,0H17.81c-.11,0-.09,0-.09-.08V11.71Z"/><path class="cls-4" d="M22.38,8.2l-.64.48-2.38,1.79-1.6,1.2,0,0V5.63c.12-.11.25-.2.38-.3L19,4.64a2,2,0,0,1,1.48-.41,2.09,2.09,0,0,1,1.84,1.71,1.72,1.72,0,0,1,0,.39V8.12A.19.19,0,0,1,22.38,8.2Z"/><path class="cls-4" d="M6.49,11.68l-.44-.32L1.9,8.24l0,0a.17.17,0,0,1,0-.07c0-.61,0-1.21,0-1.81A2,2,0,0,1,3,4.44a2,2,0,0,1,2.16.18c.44.32.87.65,1.3,1,0,0,0,0,0,0v6S6.53,11.66,6.49,11.68Z"/></g></g></svg>