<svg xmlns="http://www.w3.org/2000/svg" xmlns:xlink="http://www.w3.org/1999/xlink" viewBox="0 0 405.93 554.9"><defs><style>.cls-1{fill:none;}.cls-2{opacity:0.25;}.cls-3{clip-path:url(#clip-path);}.cls-4{fill:#808b64;}.cls-5{fill:#acc78e;}.cls-6{fill:#e3c0c3;}.cls-7{fill:#e9cb4c;}.cls-8{fill:#d38d99;}.cls-9{clip-path:url(#clip-path-2);}.cls-10{clip-path:url(#clip-path-3);}.cls-11{clip-path:url(#clip-path-4);}.cls-12{clip-path:url(#clip-path-5);}</style><clipPath id="clip-path" transform="translate(1.07 0.35)"><circle class="cls-1" cx="87.68" cy="465.33" r="87.68"/></clipPath><clipPath id="clip-path-2" transform="translate(1.07 0.35)"><circle class="cls-1" cx="280.79" cy="354.14" r="21.87"/></clipPath><clipPath id="clip-path-3" transform="translate(1.07 0.35)"><circle class="cls-1" cx="339.63" cy="268" r="64.36"/></clipPath><clipPath id="clip-path-4" transform="translate(1.07 0.35)"><circle class="cls-1" cx="256.08" cy="34.31" r="34.31"/></clipPath><clipPath id="clip-path-5" transform="translate(1.07 0.35)"><circle class="cls-1" cx="54.49" cy="195.5" r="49.14"/></clipPath></defs><g id="Calque_2" data-name="Calque 2"><g id="Calque_3" data-name="Calque 3"><g class="cls-2"><g class="cls-3"><path class="cls-4" d="M-1.07,461.77v-1.4c.66-2.13-.25-4.43.72-6.52.74-.68,1.61-.41,2.42-.23,1.48.32,1.79-.43,1.63-1.66s-.41-2.29-.64-3.42a41.12,41.12,0,0,1-.64-9c.05-2.32,1.13-4.33,1.9-6.44a77.15,77.15,0,0,1,6-12.56c.48-.81.89-1.88,2.2-1.66.75,1.08.1,2.08-.2,3.1-3.59,12-3.51,23.9,1.52,35.52,2.73,6.33,6.75,11.67,12.74,15.34a25.59,25.59,0,0,0,28.87-1.49c9-6.86,13-16.38,14.39-27.23a48.35,48.35,0,0,0-2.45-22.47,37.11,37.11,0,0,0-10.94-16.51c-8.19-6.88-17.29-7.76-27-3.75-1.05.43-2,1.29-3.27.95-.87-.93-.06-1.63.48-2.13a73.55,73.55,0,0,1,13.56-10.38,3.06,3.06,0,0,1,1.79-.38,31.71,31.71,0,0,1,8.82,1.82c1.35.49,1.86,0,1.72-1.45-.18-1.83-.94-3.62-.48-5.51a7,7,0,0,1,6-2.58c1.33.69,1.29,2,1.5,3.23a41.89,41.89,0,0,0,8.81,19.25C79.3,417.71,98,417.58,108.79,404a42.45,42.45,0,0,0,8.65-19.33c.17-1,.13-2.07,1.28-2.56,2.68.16,5.12.87,6.93,3,.38,1.72-.39,3.34-.52,5-.09,1.18.28,1.54,1.45,1.19,2.58-.78,5.14-1.7,7.9-1.6,2.1.26,3.6,1.65,5.23,2.77a68,68,0,0,1,6.67,5.3c.72.64,1.92,1.24,1.11,2.6a3,3,0,0,1-2.26-.12c-10.56-3.38-22.59.4-30.12,10.42a41.73,41.73,0,0,0-8,22c-.71,8.45.15,16.76,3.69,24.62,3.09,6.85,7.62,12.48,14.25,16.12,11,6,24.49,3.17,32.49-6.86a42.09,42.09,0,0,0,9.39-26.51c0-4.11.22-8.23-.66-12.3a2.6,2.6,0,0,1,.41-2.43c1-.32,1.42.5,1.74,1.13,2.82,5.55,5.27,11.23,6.14,17.45a53.89,53.89,0,0,1-.94,7.28c-.3,1.59-.56,3,1.84,2.59a1,1,0,0,1,.79.41c.36,1.08-.21,2.24.35,3.29v4.67a4.31,4.31,0,0,1-1.78,1.76c-10.92,6-16.35,15.78-18.3,27.62a49.4,49.4,0,0,0,2,25,6.22,6.22,0,0,1,.51,2.72c-1.75,3.54-3.84,6.78-7.66,8.46a10.29,10.29,0,0,1-2.92-1.38,22.62,22.62,0,0,0-21.22-.36c-9.62,4.6-15.48,12.34-18.44,22.44a16.39,16.39,0,0,1-1.37,4.18c-2.08,1.43-4.41,1.44-6.79,1.16-1.07-1.39-.26-2.84-.08-4.25.36-2.85-.09-3.36-2.77-2.41a26.86,26.86,0,0,1-18,.19c-2.68-.9-3.12-.45-2.89,2.42.1,1.36.67,2.77-.39,4a10.12,10.12,0,0,1-6.55-.67c-.9-.87-1-2.07-1.31-3.18-2-7.39-5.28-14.05-11-19.4-7.93-7.43-20.94-9-30.29-3.43a6.77,6.77,0,0,1-2.49,1.2,1.47,1.47,0,0,1-1.1-.28c-2.37-2.29-5-4.39-6.06-7.72a15.72,15.72,0,0,1,1-3.34c5-15.21,3.65-29.71-5.08-43.28A27.13,27.13,0,0,0,1.56,463.61,6,6,0,0,1-1.07,461.77Z" transform="translate(1.07 0.35)"/><path class="cls-5" d="M18,520.55a32.91,32.91,0,0,1-5.16-7.48,6.1,6.1,0,0,1,.33-2.74A37.3,37.3,0,0,0,11.7,486a27.05,27.05,0,0,0-10.56-12.9,5.69,5.69,0,0,1-1.67-1.57l-.54-.46v-9.32c10.4,3.47,16.47,11.06,20.13,21a50.24,50.24,0,0,1,3.14,20.51A48.55,48.55,0,0,1,18,520.55Z" transform="translate(1.07 0.35)"/><path class="cls-5" d="M163.53,512.18a39.28,39.28,0,0,1-5.14,7.44c-1-4.2-2.64-8.23-3-12.58-1.43-15.64,1.54-29.77,14-40.58a29.09,29.09,0,0,1,7.19-4.22V472a6.8,6.8,0,0,1-1.9,2c-7.9,5.82-11.13,14-11.71,23.44a39.75,39.75,0,0,0,.75,11.76A4.57,4.57,0,0,1,163.53,512.18Z" transform="translate(1.07 0.35)"/><path class="cls-6" d="M163.53,512.18a45.47,45.47,0,0,1-1.41-14.73c.6-9.51,3.8-17.8,11.65-23.78a24.89,24.89,0,0,1,2.79-1.64v1.39c-.85,1.89-.46,4-.92,5.93-.34,1.46-.31,3-1,4.37a37,37,0,0,0-5.51,16.62,5,5,0,0,1-.49,2A48.78,48.78,0,0,1,163.53,512.18Z" transform="translate(1.07 0.35)"/><path class="cls-7" d="M95.09,377.05c1,1,2.22.24,3.28.61.08,4.72-4.48,10.18-8.91,10.66s-9.2-3.39-10.1-8.41c-.16-.9-.43-1.84.3-2.65.36-.11.86.05,1-.51Z" transform="translate(1.07 0.35)"/><path class="cls-7" d="M95.47,554c-.46.21-1.17-.21-1.43.53H81.45v-.44c-.38-1,.19-1.64.74-2.28,3-3.43,9.17-3.64,12.34-.4C95.21,552.12,96.08,552.81,95.47,554Z" transform="translate(1.07 0.35)"/><path class="cls-5" d="M12.44,418.84a69.31,69.31,0,0,1,13.49-16.76,4.32,4.32,0,0,0,1.93-.75,25.75,25.75,0,0,1,29.94,3.9c8.3,8.08,12.14,18,13,29.44A46.77,46.77,0,0,1,65.94,460C61.6,468.55,55,474.66,45.41,476.78a24.92,24.92,0,0,1-22.13-5.36C15,464.67,11.1,455.62,9.66,445.33a50.22,50.22,0,0,1,2.7-25.57A3.07,3.07,0,0,0,12.44,418.84Z" transform="translate(1.07 0.35)"/><path class="cls-5" d="M147.69,400.21a78.27,78.27,0,0,1,18.82,24.3,4.79,4.79,0,0,1,.27.86,74.22,74.22,0,0,1,.9,16c-.55,11-4.2,20.78-12.16,28.57a25.17,25.17,0,0,1-15.88,7.33c-11.27,1-19.42-4.09-25.69-12.71-5.49-7.55-7.7-16.23-7.84-25.56-.14-8.39,1.25-16.38,5.21-23.78,4.26-8,10.52-13.76,19.5-16.07A28,28,0,0,1,147.69,400.21Z" transform="translate(1.07 0.35)"/><path class="cls-5" d="M58.07,500.2c-.09-10.06,2.39-19.3,8.35-27.52,8.47-11.68,22.49-15.23,34-9.05,9.25,5,14.16,13.41,16.88,23.2a48.52,48.52,0,0,1-2.55,34c-4.22,9.24-10.82,16.32-21.3,18.41a24.3,24.3,0,0,1-21.81-5.94C61.73,524.49,58.12,513.07,58.07,500.2Z" transform="translate(1.07 0.35)"/><path class="cls-5" d="M111.3,380.13a25.27,25.27,0,0,1,7.49,2.37c-.49,2.07-.91,4.17-1.47,6.23C114.37,399.4,108.75,408,98.44,413c-7.81,3.77-18.9,2.23-25.57-3.31-8.35-6.94-12.82-15.85-14.31-26.44a5.46,5.46,0,0,0-.39-1.09,23.78,23.78,0,0,1,7.42-2.33c1,.8,1.07,2,1.29,3.15a30.78,30.78,0,0,0,9,16.47,17.89,17.89,0,0,0,24.81.36,30,30,0,0,0,9.24-16.31C110.16,382.28,110.13,381,111.3,380.13Z" transform="translate(1.07 0.35)"/><path class="cls-5" d="M31,534.06c-2.25-1.94-4.7-3.67-6.51-6.08a24.54,24.54,0,0,1,16.52-5.06c10.93.72,18.78,6.44,23.93,16a39.08,39.08,0,0,1,4.8,13.71,32.32,32.32,0,0,1-7.44-1.86c-1.15-.57-1.54-1.7-2-2.74a32.19,32.19,0,0,0-6-9.06c-5.57-5.55-12.12-7.17-19.65-5.18C33.46,534.08,32.3,534.58,31,534.06Z" transform="translate(1.07 0.35)"/><path class="cls-5" d="M151.41,527.56c-2.06,2.13-3.86,4.53-6.5,6a4.91,4.91,0,0,1-3-.2c-5.21-1.07-10.15-.61-14.71,2.43a29,29,0,0,0-10.66,11.71c-.49,1-.88,2.17-2,2.73a25.6,25.6,0,0,1-7.45,2c2.39-12.94,9.2-22.65,21.51-27.69A22,22,0,0,1,151.41,527.56Z" transform="translate(1.07 0.35)"/><path class="cls-8" d="M53.9,483.64a45.23,45.23,0,0,0-1.61,8,59,59,0,0,0,0,17,50.27,50.27,0,0,0,1.47,7.68c.44,1.45-.31,1.43-1.34,1a40.65,40.65,0,0,0-6.84-2c-5.94-1.26-11.63-.08-17.26,1.77-.61.2-1.32.86-1.95.35s0-1.32.16-1.9a65.08,65.08,0,0,0,1.73-19.3,53.08,53.08,0,0,0-1.94-11.8c-.62-2.07.25-1.68,1.45-1.28a40.7,40.7,0,0,0,13.12,2.31,34,34,0,0,0,11.24-2.35C52.85,482.94,53.72,482.19,53.9,483.64Z" transform="translate(1.07 0.35)"/><path class="cls-8" d="M124.36,515c.68-3.32,1-6.92,1.51-10.49.7-5.17-.21-10.13-.83-15.15-.21-1.67-.73-3.29-1.05-4.94-.09-.49-.57-1.08-.1-1.48s1-.07,1.52.14a32.35,32.35,0,0,0,13.07,2.49A34.42,34.42,0,0,0,149,483.16c1.61-.58,2.05-.53,1.55,1.43a60.54,60.54,0,0,0-1.91,16,61.5,61.5,0,0,0,1.91,14.84c.54,2-.08,1.9-1.62,1.55-3.81-.85-7.52-2.17-11.54-2.12a29.2,29.2,0,0,0-10.59,2C124.83,517.71,124.23,517.26,124.36,515Z" transform="translate(1.07 0.35)"/><path class="cls-8" d="M77.31,437.63a87,87,0,0,0-1.7-13.18c-.26-1.13-.65-2.4.23-3.31s2,0,3,.36a27.28,27.28,0,0,0,19.8-.26c2.51-1,3.14-.7,2.84,2-.45,4.12-1.09,8.22-1.56,12.34-.37,3.32.34,6.44.45,9.64a25.59,25.59,0,0,0,1.51,7.65c.6,1.69-.24,2.21-2.28,1.63-3.77-1.08-7.51-2.17-11.52-2.11a36.32,36.32,0,0,0-10.14,2c-2.28.7-2.76.44-2.48-1.89.43-3.57,1.26-7.09,1.61-10.7C77.16,440.54,77.13,439.24,77.31,437.63Z" transform="translate(1.07 0.35)"/><path class="cls-8" d="M95.47,554c-2.36-5.62-11.28-5.51-14,.09-1.69-.28-3.49.53-5.09-.56.12-2-.71-3.94-.53-6,.13-1.49.48-2.07,2.17-1.58,2.94.85,5.84,1.9,9,2a30.45,30.45,0,0,0,11.31-1.91c2.92-1,3.5-.56,3.21,2.46-.17,1.67-.62,3.31-.94,5A12.2,12.2,0,0,1,95.47,554Z" transform="translate(1.07 0.35)"/><path class="cls-8" d="M41.8,390a31.83,31.83,0,0,1,10.74-5.61c.31,2.26.66,4.52.92,6.79.15,1.29-.19,1.89-1.7,1.26A44.62,44.62,0,0,0,41.8,390Z" transform="translate(1.07 0.35)"/><path class="cls-8" d="M125.28,385.29a32.2,32.2,0,0,1,9.34,5.15,26.72,26.72,0,0,0-8.64,2c-1.38.5-2,.75-1.74-1.3S124.88,387.23,125.28,385.29Z" transform="translate(1.07 0.35)"/><path class="cls-8" d="M-.07,453.81C0,450,1.12,446.31,2,442.62a7.52,7.52,0,0,1,1.09-3.25c-.28,4.35.7,8.56,1.42,12.81.43,2.55-.11,3-2.63,2.22C1.26,454.19.59,454-.07,453.81Z" transform="translate(1.07 0.35)"/><path class="cls-8" d="M173.76,444c1.26,2.39,1.33,5.07,1.8,7.64a10.43,10.43,0,0,1,.46,2.6c-3.61.71-3.58.71-3.2-3C173.06,448.83,173.89,446.49,173.76,444Z" transform="translate(1.07 0.35)"/><path class="cls-6" d="M-.53,471.55c5,1.84,8.39,5.64,10.9,10a36.91,36.91,0,0,1,3.52,29.18,4.37,4.37,0,0,1-1,2.3,28.31,28.31,0,0,1-4.62-8.39,13,13,0,0,1-.81-4.75C7.49,494,6,488.61,2.06,484c-.6-.7-.76-1.73-1.66-2.19C0,478.43-.88,475-.53,471.55Z" transform="translate(1.07 0.35)"/><path class="cls-6" d="M31,534.06c4.28-1.41,8.55-2.5,13.17-1.54,7.17,1.5,11.85,6,15.26,12.13,1.08,2,1.92,4.06,2.87,6.09A50.9,50.9,0,0,1,52,547a22.94,22.94,0,0,0-10.59-6,2.52,2.52,0,0,1-1.05-.45c-2.79-1.18-5-3.18-7.46-4.93C32.28,535.15,31.67,534.59,31,534.06Z" transform="translate(1.07 0.35)"/><path class="cls-8" d="M.4,481.85c3.24,1.54,4.64,4.58,5.94,7.59a24.69,24.69,0,0,1,1.93,11.05c-.07,1.4,0,2.79,0,4.19-3.53-5.86-5.41-12.33-7-18.91C1,484.47.69,483.16.4,481.85Z" transform="translate(1.07 0.35)"/><path class="cls-8" d="M40.4,540.56c4.9.32,9,2,11.64,6.46-3.88-1.4-7.34-3.61-10.91-5.62C40.82,541.23,40.64,540.84,40.4,540.56Z" transform="translate(1.07 0.35)"/><path class="cls-6" d="M111.3,380.13c-1.17,7.78-4.06,14.6-10,20.14a19,19,0,0,1-25.82-.09,32.67,32.67,0,0,1-9.91-20.39,26.59,26.59,0,0,1,6.11-1.41c1,.68,1.11,1.8,1.31,2.86a21.48,21.48,0,0,0,5.31,10.41c6.09,6.94,16.89,5.86,22.39-2.16a20,20,0,0,0,3.28-7.64c.21-1.11.2-2.35,1.28-3.12A18.11,18.11,0,0,1,111.3,380.13Z" transform="translate(1.07 0.35)"/><path class="cls-8" d="M105.27,378.73c-.71,6.26-2.93,11.64-8.24,15.55a14.56,14.56,0,0,1-18.23-1.06c-4.38-4.07-6.35-9.12-7.1-14.84,2.61-.37,5.16-1.25,7.85-.93C80,381,81,384.27,84.3,386.24c4.2,2.53,8,1.55,11.06-2.55,1.41-1.91,1.65-4.3,2.9-6.24C100.6,377.9,103,377.75,105.27,378.73Z" transform="translate(1.07 0.35)"/><path class="cls-6" d="M114.55,550.27a28.5,28.5,0,0,1,15.9-16.92c4.77-2.05,9.67-1.68,14.46.25A41.23,41.23,0,0,1,134.62,541a56,56,0,0,0-7.48,4.21A48.13,48.13,0,0,1,114.55,550.27Z" transform="translate(1.07 0.35)"/><path class="cls-8" d="M168.63,502.35c-.1-5.92.78-11.58,4.12-16.66a6,6,0,0,1,1.88-2,50.06,50.06,0,0,1-3.6,13.17C170.3,498.73,170,500.77,168.63,502.35Z" transform="translate(1.07 0.35)"/><path class="cls-8" d="M127.14,545.24c1.93-2.4,4.64-3.42,7.48-4.21A25.34,25.34,0,0,1,127.14,545.24Z" transform="translate(1.07 0.35)"/><path class="cls-6" d="M16.16,438.17c-.07-8.34,1.62-16.14,6.92-22.88,3.33-4.24,7.77-6.49,12.93-7.6,12.08-2.59,20.94,5.18,24.81,14.88,4.58,11.49,4.33,22.89-1.88,33.8-3,5.3-7,9.95-13.32,11.1-7.57,1.38-14.95.59-20.76-5.26-4.56-4.59-7-10.32-8.23-16.63A40.89,40.89,0,0,1,16.16,438.17Z" transform="translate(1.07 0.35)"/><path class="cls-6" d="M113.13,438.24C113,430,115,422.8,119.75,416.38c6-8,15.56-11.15,25-7.84,5.9,2.07,9.81,6.43,12.49,11.86a39.62,39.62,0,0,1,3.9,19.15A35,35,0,0,1,153,461.33c-7.77,9.26-22.65,8.26-30.46.77C117.18,457,112.51,447.65,113.13,438.24Z" transform="translate(1.07 0.35)"/><path class="cls-6" d="M65.14,500.3A34.2,34.2,0,0,1,71.67,478,20.9,20.9,0,0,1,103,475.55c5.35,5.25,7.84,11.7,8.84,19a40.87,40.87,0,0,1-2.87,21.57c-3.7,8.94-12.33,15.29-22.15,14.62a20.11,20.11,0,0,1-11.88-5.36C67.31,518.71,64.76,510.07,65.14,500.3Z" transform="translate(1.07 0.35)"/><path class="cls-7" d="M40.3,512.62c-4.59,0-7.5-2.71-9.31-6.5a13.73,13.73,0,0,1,2.58-15.39c5-4.81,11.77-3.85,15,2.34,2.72,5.23,2.28,13.6-2.56,17.49A7.51,7.51,0,0,1,40.3,512.62Z" transform="translate(1.07 0.35)"/><path class="cls-7" d="M127.61,499.39c0-5.27,2.92-9.79,7.39-11.45,3.16-1.18,7.43.36,9.61,3.74,3.93,6.1,3.44,14.32-1.82,19-3.36,3-9.73,2.42-12.35-1.29C128.36,506.48,127.61,503.8,127.61,499.39Z" transform="translate(1.07 0.35)"/><path class="cls-7" d="M98.23,438.05A13,13,0,0,1,95.44,447c-3.69,4.57-10.37,5.37-14.19-.55s-3.75-14.34,1.83-19.18c3.47-3,9.7-2.44,12.32,1.34A15.21,15.21,0,0,1,98.23,438.05Z" transform="translate(1.07 0.35)"/><path class="cls-8" d="M57.26,437.92c.06,6.43-1.77,12.34-6.14,17-6,6.3-13.61,6.9-20.66,1.24-4.73-3.8-6.66-9.18-7.35-15.19-.81-7,.52-13.36,4.81-18.88,5-6.42,15.41-8.62,22.29-2.07C55.39,424.92,57.22,431,57.26,437.92Z" transform="translate(1.07 0.35)"/><path class="cls-8" d="M154.18,439.33c-.12,4.76-1.54,10.82-6,15.46-5.46,5.69-12,7-18.93,2.22-6-4.16-8.27-10.43-8.66-17.54-.29-5.38.51-10.51,3.36-15.14,6.19-10.06,18.44-11.55,25.61-1.53C153,427.53,154.18,432,154.18,439.33Z" transform="translate(1.07 0.35)"/><path class="cls-8" d="M105.23,500.62A23,23,0,0,1,100,516.5c-5.21,6.42-14.33,7.25-21,1.8-9.24-7.54-9.39-26.52-1.38-34.91a14.84,14.84,0,0,1,23,1.4C104.15,489.79,105.23,493.84,105.23,500.62Z" transform="translate(1.07 0.35)"/><path class="cls-7" d="M50.26,437.94c-.33,4.32-1.34,8.23-5.13,11.07-4.48,3.36-10.79.67-13.09-3.12-3.53-5.84-3.17-12.57,1.22-17.65a9.33,9.33,0,0,1,15.2,2.11A15.14,15.14,0,0,1,50.26,437.94Z" transform="translate(1.07 0.35)"/><path class="cls-7" d="M127.61,436.33a12.14,12.14,0,0,1,4.76-9.42,8.74,8.74,0,0,1,13,3.29c2.74,5.66,2.67,11.28-.94,16.63a8.72,8.72,0,0,1-14.44-.42C128.21,443.52,127.6,441.33,127.61,436.33Z" transform="translate(1.07 0.35)"/><path class="cls-7" d="M98.28,500.3c-.18,4.72-1.21,9.15-5.91,11.39-5.15,2.45-9.12.51-11.46-3.58-3.34-5.83-3-11.6.85-17.13a8.43,8.43,0,0,1,13.61,0A14.47,14.47,0,0,1,98.28,500.3Z" transform="translate(1.07 0.35)"/></g></g><g class="cls-2"><g class="cls-9"><path class="cls-4" d="M258.65,353.25v-.35c.17-.53-.06-1.1.18-1.62.19-.17.41-.1.61-.06.37.08.44-.11.4-.42s-.1-.56-.16-.85a9.9,9.9,0,0,1-.15-2.24,5.05,5.05,0,0,1,.47-1.61,19.19,19.19,0,0,1,1.51-3.13c.12-.2.22-.47.54-.42.19.28,0,.52-.05.78a12.64,12.64,0,0,0,.38,8.86,8,8,0,0,0,3.18,3.82,6.38,6.38,0,0,0,7.2-.37,9.6,9.6,0,0,0,3.59-6.79,12.11,12.11,0,0,0-.61-5.6,9.2,9.2,0,0,0-2.73-4.12,6.13,6.13,0,0,0-6.74-.94c-.26.11-.5.33-.82.24s0-.4.12-.53a18.49,18.49,0,0,1,3.38-2.59.71.71,0,0,1,.45-.09,7.9,7.9,0,0,1,2.2.45c.34.12.46,0,.43-.36a3.77,3.77,0,0,1-.12-1.38,1.74,1.74,0,0,1,1.49-.64c.33.17.32.51.37.81a10.6,10.6,0,0,0,2.2,4.8,6.29,6.29,0,0,0,10.08,0,10.6,10.6,0,0,0,2.16-4.82c0-.24,0-.52.32-.64a2.28,2.28,0,0,1,1.73.76,4.4,4.4,0,0,1-.13,1.25c0,.29.07.38.36.29a6,6,0,0,1,2-.39,2.93,2.93,0,0,1,1.3.69,16.41,16.41,0,0,1,1.67,1.32c.17.16.47.31.27.65a.73.73,0,0,1-.56,0,6.81,6.81,0,0,0-7.51,2.6,10.36,10.36,0,0,0-2,5.49,12.31,12.31,0,0,0,.92,6.14,8.26,8.26,0,0,0,3.56,4,6.37,6.37,0,0,0,8.1-1.71,10.46,10.46,0,0,0,2.34-6.61,13.76,13.76,0,0,0-.16-3.07.62.62,0,0,1,.1-.6c.26-.08.35.12.43.28a13.52,13.52,0,0,1,1.53,4.35,13.93,13.93,0,0,1-.23,1.82c-.08.39-.14.74.46.64.07,0,.14.05.2.11.08.26-.06.55.08.82v1.16a1.1,1.1,0,0,1-.44.44A9,9,0,0,0,298,360.7a12.25,12.25,0,0,0,.48,6.23,1.54,1.54,0,0,1,.13.67,4,4,0,0,1-1.91,2.11,2.55,2.55,0,0,1-.73-.34,5.63,5.63,0,0,0-5.29-.09,8.54,8.54,0,0,0-4.6,5.6,3.84,3.84,0,0,1-.34,1,2.33,2.33,0,0,1-1.69.29c-.27-.35-.07-.71,0-1.06.09-.71,0-.84-.69-.6a6.69,6.69,0,0,1-4.5,0c-.67-.22-.78-.11-.72.61,0,.34.17.69-.09,1a2.57,2.57,0,0,1-1.64-.16,1.67,1.67,0,0,1-.33-.8,10,10,0,0,0-2.74-4.83,6.52,6.52,0,0,0-7.55-.86,1.62,1.62,0,0,1-.62.3.39.39,0,0,1-.27-.07,4.76,4.76,0,0,1-1.51-1.93,3.54,3.54,0,0,1,.23-.83,12.07,12.07,0,0,0-1.26-10.79,6.77,6.77,0,0,0-3-2.52A1.52,1.52,0,0,1,258.65,353.25Z" transform="translate(1.07 0.35)"/><path class="cls-5" d="M263.42,367.91a8.31,8.31,0,0,1-1.29-1.87,1.59,1.59,0,0,1,.08-.68,9.27,9.27,0,0,0-.37-6.06,6.76,6.76,0,0,0-2.63-3.22,1.31,1.31,0,0,1-.42-.39l-.14-.11v-2.33a8,8,0,0,1,5,5.24,12.57,12.57,0,0,1,.79,5.11A12.16,12.16,0,0,1,263.42,367.91Z" transform="translate(1.07 0.35)"/><path class="cls-5" d="M299.7,365.82a9.91,9.91,0,0,1-1.28,1.86,22.41,22.41,0,0,1-.75-3.14c-.36-3.9.38-7.42,3.49-10.12a7.45,7.45,0,0,1,1.79-1.05v2.44a1.72,1.72,0,0,1-.47.5,7.35,7.35,0,0,0-2.92,5.84,9.7,9.7,0,0,0,.19,2.94A1.15,1.15,0,0,1,299.7,365.82Z" transform="translate(1.07 0.35)"/><path class="cls-6" d="M299.7,365.82a11.35,11.35,0,0,1-.35-3.67,7.6,7.6,0,0,1,2.91-5.93,7.84,7.84,0,0,1,.69-.41v.35a8.14,8.14,0,0,0-.23,1.48,4.2,4.2,0,0,1-.25,1.09,9.12,9.12,0,0,0-1.37,4.14,1.41,1.41,0,0,1-.12.5A12.41,12.41,0,0,1,299.7,365.82Z" transform="translate(1.07 0.35)"/><path class="cls-7" d="M282.63,332.12c.24.24.56.06.82.16a2.87,2.87,0,0,1-2.22,2.65,2.49,2.49,0,0,1-2.52-2.09c0-.23-.1-.46.08-.66.09,0,.21,0,.24-.13Z" transform="translate(1.07 0.35)"/><path class="cls-7" d="M282.73,376.26c-.12.05-.29-.06-.36.13h-3.14v-.11c-.09-.24,0-.41.19-.57a2.21,2.21,0,0,1,3.08-.1C282.66,375.78,282.88,376,282.73,376.26Z" transform="translate(1.07 0.35)"/><path class="cls-5" d="M262,342.55a17,17,0,0,1,3.37-4.18,1.18,1.18,0,0,0,.48-.19,6.4,6.4,0,0,1,7.46,1,10.93,10.93,0,0,1,3.25,7.34,11.78,11.78,0,0,1-1.21,6.33,7.47,7.47,0,0,1-5.13,4.18,6.2,6.2,0,0,1-5.51-1.34,9.73,9.73,0,0,1-3.4-6.51,12.58,12.58,0,0,1,.67-6.37A.6.6,0,0,0,262,342.55Z" transform="translate(1.07 0.35)"/><path class="cls-5" d="M295.75,337.9a19.56,19.56,0,0,1,4.7,6.06,1.66,1.66,0,0,1,.06.21,18.32,18.32,0,0,1,.23,4,10.33,10.33,0,0,1-3,7.13,6.31,6.31,0,0,1-4,1.83,6.83,6.83,0,0,1-6.41-3.17,10.86,10.86,0,0,1-2-6.38,12,12,0,0,1,1.3-5.93,7.54,7.54,0,0,1,4.87-4A6.94,6.94,0,0,1,295.75,337.9Z" transform="translate(1.07 0.35)"/><path class="cls-5" d="M273.4,362.84a11.18,11.18,0,0,1,2.09-6.87,6.53,6.53,0,0,1,8.48-2.25,8.83,8.83,0,0,1,4.21,5.78,12.16,12.16,0,0,1-.64,8.48,7.4,7.4,0,0,1-5.31,4.59,6.09,6.09,0,0,1-5.44-1.48A10.48,10.48,0,0,1,273.4,362.84Z" transform="translate(1.07 0.35)"/><path class="cls-5" d="M286.68,332.89a6.47,6.47,0,0,1,1.87.59c-.13.52-.23,1-.37,1.56a8.88,8.88,0,0,1-4.71,6,6.32,6.32,0,0,1-6.38-.83,10.07,10.07,0,0,1-3.57-6.59,1.43,1.43,0,0,0-.09-.27,5.7,5.7,0,0,1,1.85-.58,1.19,1.19,0,0,1,.32.78,7.61,7.61,0,0,0,2.24,4.11,4.45,4.45,0,0,0,6.18.09,7.44,7.44,0,0,0,2.31-4.07C286.39,333.43,286.39,333.1,286.68,332.89Z" transform="translate(1.07 0.35)"/><path class="cls-5" d="M266.66,371.28a9.7,9.7,0,0,1-1.62-1.52,6.15,6.15,0,0,1,4.12-1.26,7.05,7.05,0,0,1,6,4,9.75,9.75,0,0,1,1.19,3.42,8,8,0,0,1-1.85-.46,1.2,1.2,0,0,1-.51-.68,7.82,7.82,0,0,0-1.5-2.26,4.75,4.75,0,0,0-4.9-1.29A1.38,1.38,0,0,1,266.66,371.28Z" transform="translate(1.07 0.35)"/><path class="cls-5" d="M296.68,369.66a7.45,7.45,0,0,1-1.62,1.5,1.18,1.18,0,0,1-.74,0,4.62,4.62,0,0,0-3.67.6,7.33,7.33,0,0,0-2.66,2.92,1.22,1.22,0,0,1-.5.68,6.33,6.33,0,0,1-1.86.5,8.66,8.66,0,0,1,5.36-6.91A5.48,5.48,0,0,1,296.68,369.66Z" transform="translate(1.07 0.35)"/><path class="cls-8" d="M272.36,358.71a11.81,11.81,0,0,0-.4,2,14.76,14.76,0,0,0,0,4.25,12.37,12.37,0,0,0,.36,1.91c.11.36-.07.36-.33.26a9.3,9.3,0,0,0-1.71-.5,8.09,8.09,0,0,0-4.3.44c-.15.05-.33.21-.49.09s0-.33,0-.48a16.23,16.23,0,0,0,.43-4.81,13.46,13.46,0,0,0-.48-2.95c-.15-.51.06-.41.36-.31a10.13,10.13,0,0,0,3.27.57,8.7,8.7,0,0,0,2.81-.58C272.1,358.53,272.32,358.35,272.36,358.71Z" transform="translate(1.07 0.35)"/><path class="cls-8" d="M289.93,366.52c.17-.83.26-1.73.38-2.62a14.07,14.07,0,0,0-.21-3.78c-.05-.41-.18-.82-.26-1.23,0-.12-.14-.27,0-.37s.25,0,.38,0a8.21,8.21,0,0,0,3.25.62,8.74,8.74,0,0,0,2.63-.59c.4-.15.51-.14.39.35a15.4,15.4,0,0,0-.48,4,15,15,0,0,0,.48,3.71c.13.49,0,.47-.4.38a12.27,12.27,0,0,0-2.88-.52,7.25,7.25,0,0,0-2.65.5C290.05,367.2,289.9,367.09,289.93,366.52Z" transform="translate(1.07 0.35)"/><path class="cls-8" d="M278.2,347.23a22.79,22.79,0,0,0-.42-3.29c-.07-.28-.16-.59.06-.82s.49,0,.74.09a6.77,6.77,0,0,0,4.93-.07c.63-.25.79-.17.71.51-.11,1-.27,2.05-.39,3.08a17.39,17.39,0,0,0,.11,2.4,6.75,6.75,0,0,0,.38,1.91c.15.42-.06.55-.57.4a9.63,9.63,0,0,0-2.87-.52,9.09,9.09,0,0,0-2.53.5c-.57.18-.69.11-.62-.47.11-.89.32-1.77.4-2.66C278.16,348,278.16,347.63,278.2,347.23Z" transform="translate(1.07 0.35)"/><path class="cls-8" d="M282.73,376.26a2,2,0,0,0-3.5,0c-.42-.07-.87.13-1.27-.14,0-.5-.17-1-.13-1.49s.12-.52.54-.39a9.56,9.56,0,0,0,2.24.5,7.57,7.57,0,0,0,2.82-.47c.72-.25.87-.14.8.61-.05.42-.16.83-.24,1.24A3.15,3.15,0,0,1,282.73,376.26Z" transform="translate(1.07 0.35)"/><path class="cls-8" d="M269.35,335.35A7.77,7.77,0,0,1,272,334c.08.56.17,1.13.23,1.69,0,.32,0,.47-.42.32A11.1,11.1,0,0,0,269.35,335.35Z" transform="translate(1.07 0.35)"/><path class="cls-8" d="M290.16,334.18a7.91,7.91,0,0,1,2.33,1.28,6.67,6.67,0,0,0-2.15.5c-.35.12-.51.19-.44-.33S290.06,334.66,290.16,334.18Z" transform="translate(1.07 0.35)"/><path class="cls-8" d="M258.9,351.27a12.62,12.62,0,0,1,.53-2.79,1.94,1.94,0,0,1,.27-.81,14.3,14.3,0,0,0,.35,3.19c.11.64,0,.75-.65.55Z" transform="translate(1.07 0.35)"/><path class="cls-8" d="M302.26,348.83a6.19,6.19,0,0,1,.44,1.9,2.48,2.48,0,0,1,.12.65c-.9.18-.9.18-.8-.75A12.34,12.34,0,0,0,302.26,348.83Z" transform="translate(1.07 0.35)"/><path class="cls-6" d="M258.79,355.69a5.32,5.32,0,0,1,2.72,2.5,9.23,9.23,0,0,1,.87,7.28,1,1,0,0,1-.25.57A6.88,6.88,0,0,1,261,364a3,3,0,0,1-.2-1.18,5.77,5.77,0,0,0-1.35-4c-.14-.18-.19-.43-.41-.55A11.65,11.65,0,0,1,258.79,355.69Z" transform="translate(1.07 0.35)"/><path class="cls-6" d="M266.66,371.28a6.24,6.24,0,0,1,3.29-.38,5.54,5.54,0,0,1,3.8,3c.27.49.48,1,.72,1.52a12.34,12.34,0,0,1-2.57-.93,5.77,5.77,0,0,0-2.64-1.5.56.56,0,0,1-.26-.11,9.23,9.23,0,0,1-1.86-1.23C267,371.55,266.82,371.41,266.66,371.28Z" transform="translate(1.07 0.35)"/><path class="cls-8" d="M259,358.26a3.24,3.24,0,0,1,1.48,1.89,6,6,0,0,1,.48,2.76c0,.35,0,.69,0,1a16.2,16.2,0,0,1-1.74-4.71C259.16,358.91,259.09,358.59,259,358.26Z" transform="translate(1.07 0.35)"/><path class="cls-8" d="M269,372.9a3.34,3.34,0,0,1,2.9,1.61,18.38,18.38,0,0,1-2.72-1.4C269.1,373.07,269.06,373,269,372.9Z" transform="translate(1.07 0.35)"/><path class="cls-6" d="M286.68,332.89a8.21,8.21,0,0,1-2.49,5,4.72,4.72,0,0,1-6.44,0,8.08,8.08,0,0,1-2.47-5.08,6.1,6.1,0,0,1,1.52-.35c.26.17.28.44.33.71a5.27,5.27,0,0,0,1.32,2.59,3.51,3.51,0,0,0,5.59-.53,5.07,5.07,0,0,0,.81-1.91c.06-.28,0-.59.33-.78A4.83,4.83,0,0,1,286.68,332.89Z" transform="translate(1.07 0.35)"/><path class="cls-8" d="M285.18,332.54a5.25,5.25,0,0,1-2.06,3.88,3.63,3.63,0,0,1-4.55-.26,5.88,5.88,0,0,1-1.77-3.7,7.21,7.21,0,0,1,2-.24,2.77,2.77,0,0,0,1.19,2.2,1.9,1.9,0,0,0,2.75-.64c.35-.48.41-1.07.73-1.56A8,8,0,0,1,285.18,332.54Z" transform="translate(1.07 0.35)"/><path class="cls-6" d="M287.49,375.32a7.11,7.11,0,0,1,4-4.22,4.62,4.62,0,0,1,3.61.06,10,10,0,0,1-2.57,1.86,13.64,13.64,0,0,0-1.86,1.05A12,12,0,0,1,287.49,375.32Z" transform="translate(1.07 0.35)"/><path class="cls-8" d="M301,363.37a7,7,0,0,1,1-4.15,1.47,1.47,0,0,1,.47-.49,12.48,12.48,0,0,1-.9,3.28A4.46,4.46,0,0,1,301,363.37Z" transform="translate(1.07 0.35)"/><path class="cls-8" d="M290.63,374.07a3.42,3.42,0,0,1,1.86-1.05A6.43,6.43,0,0,1,290.63,374.07Z" transform="translate(1.07 0.35)"/><path class="cls-6" d="M263,347.37a8.75,8.75,0,0,1,1.73-5.71,5.28,5.28,0,0,1,3.22-1.89c3-.65,5.22,1.29,6.19,3.71a9.31,9.31,0,0,1-.47,8.42,4.93,4.93,0,0,1-3.32,2.77,5.46,5.46,0,0,1-5.18-1.31,7.79,7.79,0,0,1-2.05-4.14A10.46,10.46,0,0,1,263,347.37Z" transform="translate(1.07 0.35)"/><path class="cls-6" d="M287.13,347.38a8.52,8.52,0,0,1,1.66-5.45A5.34,5.34,0,0,1,295,340a5.5,5.5,0,0,1,3.12,3,9.83,9.83,0,0,1,1,4.77,8.68,8.68,0,0,1-2,5.43c-1.94,2.31-5.65,2.06-7.59.19A8,8,0,0,1,287.13,347.38Z" transform="translate(1.07 0.35)"/><path class="cls-6" d="M275.17,362.86a8.5,8.5,0,0,1,1.62-5.55,5.22,5.22,0,0,1,7.81-.62,7.85,7.85,0,0,1,2.2,4.73,10.19,10.19,0,0,1-.71,5.38,5.7,5.7,0,0,1-5.53,3.65,5,5,0,0,1-3-1.34A7.41,7.41,0,0,1,275.17,362.86Z" transform="translate(1.07 0.35)"/><path class="cls-7" d="M269,365.93a2.49,2.49,0,0,1-2.32-1.62,3.42,3.42,0,0,1,.64-3.84,2.24,2.24,0,0,1,3.74.59,3.73,3.73,0,0,1-.64,4.36A1.82,1.82,0,0,1,269,365.93Z" transform="translate(1.07 0.35)"/><path class="cls-7" d="M290.74,362.63a3,3,0,0,1,1.85-2.85,2.13,2.13,0,0,1,2.4.93,3.73,3.73,0,0,1-.46,4.75,2.22,2.22,0,0,1-3.08-.32A3.89,3.89,0,0,1,290.74,362.63Z" transform="translate(1.07 0.35)"/><path class="cls-7" d="M283.42,347.34a3.23,3.23,0,0,1-.7,2.22,2.09,2.09,0,0,1-3.54-.14,3.72,3.72,0,0,1,.46-4.78,2.18,2.18,0,0,1,3.07.33A3.82,3.82,0,0,1,283.42,347.34Z" transform="translate(1.07 0.35)"/><path class="cls-8" d="M273.2,347.3a5.88,5.88,0,0,1-1.53,4.24,3.52,3.52,0,0,1-5.15.3,5.36,5.36,0,0,1-1.84-3.78,6.2,6.2,0,0,1,1.2-4.71,3.8,3.8,0,0,1,5.56-.52A5.88,5.88,0,0,1,273.2,347.3Z" transform="translate(1.07 0.35)"/><path class="cls-8" d="M297.37,347.66a5.77,5.77,0,0,1-1.49,3.85,3.36,3.36,0,0,1-4.73.56,5.32,5.32,0,0,1-2.15-4.38,6.27,6.27,0,0,1,.83-3.77c1.55-2.51,4.6-2.89,6.39-.39A6.37,6.37,0,0,1,297.37,347.66Z" transform="translate(1.07 0.35)"/><path class="cls-8" d="M285.16,362.94a5.75,5.75,0,0,1-1.31,4,3.65,3.65,0,0,1-5.24.45c-2.3-1.88-2.34-6.61-.34-8.71A3.7,3.7,0,0,1,284,359,6,6,0,0,1,285.16,362.94Z" transform="translate(1.07 0.35)"/><path class="cls-7" d="M271.45,347.31a3.46,3.46,0,0,1-1.27,2.76,2.37,2.37,0,0,1-3.27-.78,3.64,3.64,0,0,1,.31-4.4,2.32,2.32,0,0,1,3.79.53A3.74,3.74,0,0,1,271.45,347.31Z" transform="translate(1.07 0.35)"/><path class="cls-7" d="M290.74,346.91a3,3,0,0,1,1.19-2.35,2.18,2.18,0,0,1,3.23.82,3.92,3.92,0,0,1-.23,4.15,2.17,2.17,0,0,1-3.6-.11A4.08,4.08,0,0,1,290.74,346.91Z" transform="translate(1.07 0.35)"/><path class="cls-7" d="M283.43,362.86A2.89,2.89,0,0,1,282,365.7a2,2,0,0,1-2.86-.89,3.74,3.74,0,0,1,.21-4.27,2.11,2.11,0,0,1,3.4,0A3.61,3.61,0,0,1,283.43,362.86Z" transform="translate(1.07 0.35)"/></g></g><g class="cls-2"><g class="cls-10"><path class="cls-4" d="M274.48,265.39v-1c.49-1.56-.18-3.25.53-4.79.55-.5,1.18-.3,1.78-.17,1.09.24,1.31-.31,1.19-1.22s-.29-1.67-.47-2.51a30.43,30.43,0,0,1-.46-6.6c0-1.7.83-3.18,1.39-4.72a55.56,55.56,0,0,1,4.44-9.23c.35-.59.64-1.38,1.61-1.22.55.8.07,1.53-.15,2.28-2.63,8.82-2.57,17.54,1.11,26.07a23.7,23.7,0,0,0,9.36,11.26A18.79,18.79,0,0,0,316,272.42c6.58-5,9.54-12,10.56-20a35.42,35.42,0,0,0-1.8-16.49,27.15,27.15,0,0,0-8-12.12c-6-5-12.69-5.7-19.84-2.75-.77.32-1.45,1-2.39.69-.65-.68-.05-1.19.35-1.56a53.82,53.82,0,0,1,9.95-7.62,2.18,2.18,0,0,1,1.31-.28,23.59,23.59,0,0,1,6.48,1.34c1,.36,1.36,0,1.26-1.06-.14-1.35-.69-2.66-.36-4.05a5.12,5.12,0,0,1,4.4-1.89c1,.5.94,1.5,1.1,2.37a30.63,30.63,0,0,0,6.47,14.13c8,9.9,21.7,9.81,29.66-.14a31.19,31.19,0,0,0,6.35-14.19c.13-.71.09-1.52.94-1.88a6.75,6.75,0,0,1,5.09,2.22c.27,1.27-.29,2.45-.39,3.69-.06.87.21,1.13,1.07.87a17.73,17.73,0,0,1,5.8-1.17c1.54.19,2.64,1.21,3.84,2a50.86,50.86,0,0,1,4.89,3.89c.53.47,1.41.91.82,1.91a2.2,2.2,0,0,1-1.67-.09c-7.74-2.48-16.57.3-22.1,7.65a30.65,30.65,0,0,0-5.9,16.17,36,36,0,0,0,2.71,18.08A24.28,24.28,0,0,0,367,274a18.76,18.76,0,0,0,23.85-5,30.9,30.9,0,0,0,6.89-19.45,41.38,41.38,0,0,0-.48-9,1.9,1.9,0,0,1,.29-1.79c.76-.23,1,.37,1.28.84a40.51,40.51,0,0,1,4.5,12.81,38.6,38.6,0,0,1-.68,5.34c-.22,1.16-.42,2.18,1.35,1.89a.74.74,0,0,1,.58.31c.26.79-.16,1.65.25,2.42v3.42a3.25,3.25,0,0,1-1.3,1.3c-8,4.4-12,11.57-13.43,20.27a36.2,36.2,0,0,0,1.44,18.33,4.57,4.57,0,0,1,.37,2c-1.29,2.6-2.82,5-5.62,6.21a7.32,7.32,0,0,1-2.15-1,16.6,16.6,0,0,0-15.57-.26c-7.06,3.37-11.37,9.06-13.54,16.47a12,12,0,0,1-1,3.07,6.92,6.92,0,0,1-5,.85c-.78-1-.19-2.08-.06-3.12.27-2.09-.06-2.47-2-1.77a19.67,19.67,0,0,1-13.22.14c-2-.66-2.3-.33-2.13,1.78.08,1,.49,2-.28,2.95a7.37,7.37,0,0,1-4.81-.49,4.54,4.54,0,0,1-1-2.33c-1.5-5.42-3.88-10.31-8.06-14.24a19.22,19.22,0,0,0-22.23-2.52,5.11,5.11,0,0,1-1.83.89,1.11,1.11,0,0,1-.81-.21c-1.74-1.69-3.67-3.22-4.45-5.67a12.25,12.25,0,0,1,.7-2.45c3.69-11.16,2.69-21.81-3.72-31.76a20,20,0,0,0-8.76-7.42A4.39,4.39,0,0,1,274.48,265.39Z" transform="translate(1.07 0.35)"/><path class="cls-5" d="M288.5,308.53a24.38,24.38,0,0,1-3.78-5.49,4.43,4.43,0,0,1,.24-2,27.36,27.36,0,0,0-1.11-17.85,19.84,19.84,0,0,0-7.74-9.46,4.13,4.13,0,0,1-1.23-1.16l-.4-.33v-6.84c7.64,2.54,12.09,8.12,14.78,15.41a36.87,36.87,0,0,1,2.3,15.05A35.31,35.31,0,0,1,288.5,308.53Z" transform="translate(1.07 0.35)"/><path class="cls-5" d="M395.3,302.38a28.92,28.92,0,0,1-3.77,5.47c-.71-3.09-1.94-6.05-2.23-9.24-1-11.47,1.14-21.84,10.29-29.78a21.42,21.42,0,0,1,5.27-3.1v7.18a4.87,4.87,0,0,1-1.39,1.47c-5.8,4.27-8.17,10.28-8.6,17.2a29.21,29.21,0,0,0,.56,8.64A3.34,3.34,0,0,1,395.3,302.38Z" transform="translate(1.07 0.35)"/><path class="cls-6" d="M395.3,302.38a33.33,33.33,0,0,1-1-10.8c.44-7,2.78-13.07,8.54-17.46a22.06,22.06,0,0,1,2.05-1.21v1c-.62,1.39-.33,2.91-.67,4.35a13.61,13.61,0,0,1-.74,3.21,27.31,27.31,0,0,0-4.05,12.2,3.6,3.6,0,0,1-.35,1.47A35.52,35.52,0,0,1,395.3,302.38Z" transform="translate(1.07 0.35)"/><path class="cls-7" d="M345.06,203.2c.7.71,1.63.18,2.41.45.06,3.47-3.29,7.47-6.54,7.82s-6.75-2.49-7.41-6.17c-.12-.66-.31-1.35.22-1.94.26-.08.63,0,.72-.38Z" transform="translate(1.07 0.35)"/><path class="cls-7" d="M345.35,333.09c-.35.15-.86-.16-1.06.39h-9.24v-.33c-.28-.7.14-1.2.55-1.67a6.49,6.49,0,0,1,9-.29C345.15,331.7,345.8,332.21,345.35,333.09Z" transform="translate(1.07 0.35)"/><path class="cls-5" d="M284.4,233.87a51.32,51.32,0,0,1,9.9-12.3,3.06,3.06,0,0,0,1.42-.55,18.87,18.87,0,0,1,22,2.87c6.1,5.92,8.92,13.2,9.55,21.6a34.28,34.28,0,0,1-3.57,18.62c-3.19,6.25-8,10.74-15.07,12.3a18.31,18.31,0,0,1-16.24-3.94c-6.06-5-8.94-11.6-10-19.15a37,37,0,0,1,2-18.77A2.5,2.5,0,0,0,284.4,233.87Z" transform="translate(1.07 0.35)"/><path class="cls-5" d="M383.67,220.2A57.48,57.48,0,0,1,397.49,238a4.34,4.34,0,0,1,.2.64,54.69,54.69,0,0,1,.66,11.71c-.41,8.07-3.08,15.26-8.93,21a18.52,18.52,0,0,1-11.65,5.39c-8.28.72-14.26-3-18.86-9.34-4-5.54-5.65-11.91-5.76-18.76A35,35,0,0,1,357,231.19c3.13-5.86,7.72-10.1,14.31-11.8A20.57,20.57,0,0,1,383.67,220.2Z" transform="translate(1.07 0.35)"/><path class="cls-5" d="M317.89,293.6A32.86,32.86,0,0,1,324,273.4c6.22-8.58,16.51-11.18,25-6.65,6.79,3.65,10.39,9.84,12.39,17a35.59,35.59,0,0,1-1.88,24.94c-3.09,6.78-7.94,12-15.63,13.52a17.9,17.9,0,0,1-16-4.36C320.58,311.42,317.93,303,317.89,293.6Z" transform="translate(1.07 0.35)"/><path class="cls-5" d="M357,205.47a18.27,18.27,0,0,1,5.5,1.73c-.36,1.52-.66,3.06-1.08,4.57-2.16,7.84-6.29,14.14-13.86,17.79-5.73,2.76-13.87,1.64-18.77-2.43a29.59,29.59,0,0,1-10.5-19.41,4.29,4.29,0,0,0-.29-.8,17.66,17.66,0,0,1,5.45-1.71,3.45,3.45,0,0,1,.95,2.31,22.56,22.56,0,0,0,6.58,12.09,13.14,13.14,0,0,0,18.21.27,22,22,0,0,0,6.78-12C356.12,207,356.11,206.06,357,205.47Z" transform="translate(1.07 0.35)"/><path class="cls-5" d="M298.05,318.45a30.13,30.13,0,0,1-4.78-4.46,18,18,0,0,1,12.13-3.72c8,.53,13.79,4.73,17.57,11.72a28.8,28.8,0,0,1,3.52,10.07,24,24,0,0,1-5.47-1.37,3.76,3.76,0,0,1-1.49-2,23.22,23.22,0,0,0-4.41-6.65,14,14,0,0,0-14.41-3.8A4,4,0,0,1,298.05,318.45Z" transform="translate(1.07 0.35)"/><path class="cls-5" d="M386.41,313.68c-1.52,1.56-2.84,3.32-4.78,4.43a3.74,3.74,0,0,1-2.17-.14,13.64,13.64,0,0,0-10.8,1.77,21.26,21.26,0,0,0-7.82,8.6,3.66,3.66,0,0,1-1.49,2,18.92,18.92,0,0,1-5.47,1.45c1.76-9.49,6.75-16.62,15.79-20.32A16.13,16.13,0,0,1,386.41,313.68Z" transform="translate(1.07 0.35)"/><path class="cls-8" d="M314.83,281.44a33.47,33.47,0,0,0-1.18,5.88,43.41,43.41,0,0,0,0,12.52,37.41,37.41,0,0,0,1.08,5.64c.33,1.06-.23,1-1,.75a29.21,29.21,0,0,0-5-1.48c-4.36-.92-8.54-.06-12.67,1.3-.45.15-1,.63-1.43.26s0-1,.12-1.4A47.94,47.94,0,0,0,296,290.75a39.26,39.26,0,0,0-1.43-8.67c-.45-1.52.19-1.23,1.06-.93a29.85,29.85,0,0,0,9.64,1.69,25.38,25.38,0,0,0,8.25-1.72C314.06,280.93,314.7,280.38,314.83,281.44Z" transform="translate(1.07 0.35)"/><path class="cls-8" d="M366.55,304.43c.49-2.43.75-5.07,1.11-7.7.51-3.79-.16-7.43-.61-11.12-.15-1.22-.54-2.41-.77-3.62-.07-.36-.42-.79-.08-1.09s.74,0,1.12.1a23.56,23.56,0,0,0,9.59,1.83,25.38,25.38,0,0,0,7.73-1.74c1.18-.43,1.51-.39,1.14,1.05a46.4,46.4,0,0,0,0,22.64c.4,1.46-.06,1.4-1.19,1.14-2.8-.63-5.52-1.59-8.47-1.56a21.43,21.43,0,0,0-7.77,1.5C366.89,306.44,366.45,306.12,366.55,304.43Z" transform="translate(1.07 0.35)"/><path class="cls-8" d="M332,247.67a64.15,64.15,0,0,0-1.24-9.68c-.19-.83-.48-1.76.17-2.42s1.45,0,2.18.26a20,20,0,0,0,14.53-.19c1.84-.75,2.3-.51,2.09,1.48-.34,3-.81,6-1.15,9.06-.27,2.43.25,4.72.33,7.07a18.45,18.45,0,0,0,1.11,5.62c.44,1.24-.18,1.62-1.67,1.19a29.27,29.27,0,0,0-8.46-1.55,26.45,26.45,0,0,0-7.44,1.5c-1.68.51-2,.31-1.82-1.39.31-2.63.92-5.21,1.17-7.85C331.91,249.8,331.88,248.85,332,247.67Z" transform="translate(1.07 0.35)"/><path class="cls-8" d="M345.35,333.09c-1.74-4.12-8.29-4-10.3.06-1.24-.2-2.56.39-3.73-.4.09-1.48-.52-2.89-.39-4.39.09-1.09.35-1.51,1.59-1.16a27.85,27.85,0,0,0,6.57,1.5,22.13,22.13,0,0,0,8.3-1.4c2.14-.73,2.57-.41,2.36,1.81-.12,1.22-.46,2.42-.69,3.64A9,9,0,0,1,345.35,333.09Z" transform="translate(1.07 0.35)"/><path class="cls-8" d="M306,212.68a23.17,23.17,0,0,1,7.89-4.11c.22,1.66.48,3.32.67,5,.11.94-.14,1.39-1.25.93A33.12,33.12,0,0,0,306,212.68Z" transform="translate(1.07 0.35)"/><path class="cls-8" d="M367.22,209.25a23.71,23.71,0,0,1,6.86,3.78,19.45,19.45,0,0,0-6.34,1.45c-1,.37-1.51.56-1.28-.95S366.93,210.67,367.22,209.25Z" transform="translate(1.07 0.35)"/><path class="cls-8" d="M275.22,259.54a35.94,35.94,0,0,1,1.54-8.21,5.79,5.79,0,0,1,.8-2.39c-.2,3.2.52,6.29,1.05,9.4.31,1.88-.08,2.2-1.93,1.63Z" transform="translate(1.07 0.35)"/><path class="cls-8" d="M402.81,252.37c.92,1.75,1,3.72,1.32,5.6a7.74,7.74,0,0,1,.34,1.91c-2.65.52-2.63.52-2.35-2.22C402.29,255.89,402.91,254.17,402.81,252.37Z" transform="translate(1.07 0.35)"/><path class="cls-6" d="M274.88,272.56c3.69,1.35,6.16,4.15,8,7.37a27.07,27.07,0,0,1,2.58,21.42,3.16,3.16,0,0,1-.74,1.69,20.5,20.5,0,0,1-3.39-6.16,9.4,9.4,0,0,1-.6-3.49,17,17,0,0,0-4-11.66c-.44-.51-.56-1.26-1.22-1.6C275.27,277.61,274.62,275.13,274.88,272.56Z" transform="translate(1.07 0.35)"/><path class="cls-6" d="M298.05,318.45c3.15-1,6.28-1.84,9.67-1.13,5.26,1.1,8.7,4.41,11.2,8.9.8,1.44,1.41,3,2.1,4.47a36.82,36.82,0,0,1-7.55-2.73,16.75,16.75,0,0,0-7.78-4.41,1.92,1.92,0,0,1-.76-.33,28.74,28.74,0,0,1-5.48-3.62C299,319.25,298.52,318.83,298.05,318.45Z" transform="translate(1.07 0.35)"/><path class="cls-8" d="M275.56,280.13c2.38,1.12,3.41,3.36,4.36,5.56a18.15,18.15,0,0,1,1.42,8.12c0,1,0,2.05,0,3.07A47.86,47.86,0,0,1,276.2,283C276,282,275.77,281.08,275.56,280.13Z" transform="translate(1.07 0.35)"/><path class="cls-8" d="M304.93,323.22c3.59.23,6.63,1.47,8.54,4.74a53.66,53.66,0,0,1-8-4.13C305.23,323.71,305.1,323.43,304.93,323.22Z" transform="translate(1.07 0.35)"/><path class="cls-6" d="M357,205.47c-.85,5.71-3,10.71-7.32,14.77a13.91,13.91,0,0,1-18.95-.06,24,24,0,0,1-7.28-15,19.17,19.17,0,0,1,4.48-1c.76.5.82,1.32,1,2.1a15.75,15.75,0,0,0,3.9,7.64c4.46,5.09,12.39,4.3,16.43-1.59a14.81,14.81,0,0,0,2.41-5.6c.15-.82.14-1.73.94-2.3A13,13,0,0,1,357,205.47Z" transform="translate(1.07 0.35)"/><path class="cls-8" d="M352.54,204.43c-.53,4.6-2.15,8.55-6.05,11.42a10.68,10.68,0,0,1-13.38-.78,17.24,17.24,0,0,1-5.22-10.89c1.92-.27,3.79-.92,5.77-.68.36,2.58,1.08,5,3.49,6.45,3.08,1.86,5.89,1.13,8.11-1.88,1-1.4,1.21-3.15,2.13-4.57C349.11,203.82,350.9,203.72,352.54,204.43Z" transform="translate(1.07 0.35)"/><path class="cls-6" d="M359.35,330.35A20.91,20.91,0,0,1,371,317.92a13.45,13.45,0,0,1,10.61.19,29.85,29.85,0,0,1-7.55,5.45,42.22,42.22,0,0,0-5.49,3.09A35.53,35.53,0,0,1,359.35,330.35Z" transform="translate(1.07 0.35)"/><path class="cls-8" d="M399.05,295.17c-.08-4.34.57-8.5,3-12.23a4.32,4.32,0,0,1,1.38-1.44,36.8,36.8,0,0,1-2.65,9.67C400.27,292.52,400,294,399.05,295.17Z" transform="translate(1.07 0.35)"/><path class="cls-8" d="M368.59,326.65a10,10,0,0,1,5.49-3.09A18.49,18.49,0,0,1,368.59,326.65Z" transform="translate(1.07 0.35)"/><path class="cls-6" d="M287.13,248.06c-.05-6.12,1.19-11.84,5.08-16.79a15.68,15.68,0,0,1,9.49-5.58c8.87-1.9,15.37,3.8,18.21,10.92,3.36,8.43,3.18,16.8-1.38,24.81-2.22,3.89-5.15,7.3-9.78,8.15-5.55,1-11,.43-15.23-3.86a23.06,23.06,0,0,1-6-12.21A31,31,0,0,1,287.13,248.06Z" transform="translate(1.07 0.35)"/><path class="cls-6" d="M358.31,248.11a24.92,24.92,0,0,1,4.86-16,15.78,15.78,0,0,1,18.33-5.76c4.32,1.53,7.19,4.73,9.16,8.71a29.23,29.23,0,0,1,2.87,14.06,25.74,25.74,0,0,1-6,16c-5.7,6.79-16.62,6.06-22.35.56A23.52,23.52,0,0,1,358.31,248.11Z" transform="translate(1.07 0.35)"/><path class="cls-6" d="M323.08,293.67a25.09,25.09,0,0,1,4.79-16.35,15.35,15.35,0,0,1,23-1.82c3.93,3.86,5.75,8.59,6.49,13.93a30.09,30.09,0,0,1-2.11,15.84c-2.71,6.56-9.05,11.22-16.26,10.73a14.83,14.83,0,0,1-8.72-3.94C324.68,307.18,322.8,300.84,323.08,293.67Z" transform="translate(1.07 0.35)"/><path class="cls-7" d="M304.85,302.71c-3.37,0-5.51-2-6.83-4.77a10.06,10.06,0,0,1,1.89-11.3c3.64-3.53,8.64-2.83,11,1.72,2,3.84,1.67,10-1.88,12.83A5.5,5.5,0,0,1,304.85,302.71Z" transform="translate(1.07 0.35)"/><path class="cls-7" d="M368.93,293a8.75,8.75,0,0,1,5.43-8.41c2.32-.86,5.45.27,7.05,2.75,2.89,4.48,2.53,10.51-1.33,14-2.47,2.21-7.14,1.78-9.07-.95A11.39,11.39,0,0,1,368.93,293Z" transform="translate(1.07 0.35)"/><path class="cls-7" d="M347.37,248a9.46,9.46,0,0,1-2.05,6.53c-2.71,3.36-7.61,3.94-10.41-.4s-2.76-10.53,1.34-14.08c2.55-2.21,7.12-1.79,9,1A11.24,11.24,0,0,1,347.37,248Z" transform="translate(1.07 0.35)"/><path class="cls-8" d="M317.3,247.88a17.31,17.31,0,0,1-4.51,12.45c-4.37,4.63-10,5.07-15.17.91-3.47-2.79-4.88-6.73-5.39-11.14-.59-5.13.38-9.81,3.53-13.86,3.67-4.71,11.31-6.33,16.36-1.52C315.92,238.34,317.27,242.83,317.3,247.88Z" transform="translate(1.07 0.35)"/><path class="cls-8" d="M388.44,248.91A16.94,16.94,0,0,1,384,260.26c-4,4.18-8.81,5.16-13.89,1.64-4.41-3.06-6.07-7.66-6.36-12.88a18.69,18.69,0,0,1,2.47-11.11c4.54-7.39,13.53-8.48,18.8-1.13C387.53,240.26,388.44,243.52,388.44,248.91Z" transform="translate(1.07 0.35)"/><path class="cls-8" d="M352.51,293.9a16.89,16.89,0,0,1-3.88,11.66,10.74,10.74,0,0,1-15.41,1.32c-6.78-5.53-6.89-19.47-1-25.63a10.9,10.9,0,0,1,16.91,1C351.71,286,352.51,288.92,352.51,293.9Z" transform="translate(1.07 0.35)"/><path class="cls-7" d="M312.16,247.89c-.24,3.18-1,6-3.77,8.13-3.28,2.47-7.91.5-9.6-2.29a10.7,10.7,0,0,1,.89-12.95,6.85,6.85,0,0,1,11.16,1.54A11.12,11.12,0,0,1,312.16,247.89Z" transform="translate(1.07 0.35)"/><path class="cls-7" d="M368.93,246.71a8.89,8.89,0,0,1,3.5-6.91,6.42,6.42,0,0,1,9.51,2.41,11.54,11.54,0,0,1-.69,12.21,6.4,6.4,0,0,1-10.6-.31C369.37,252,368.93,250.39,368.93,246.71Z" transform="translate(1.07 0.35)"/><path class="cls-7" d="M347.41,293.66c-.13,3.47-.89,6.72-4.34,8.37-3.78,1.8-6.69.37-8.41-2.63a11,11,0,0,1,.62-12.57,6.18,6.18,0,0,1,10,0A10.62,10.62,0,0,1,347.41,293.66Z" transform="translate(1.07 0.35)"/></g></g><g class="cls-2"><g class="cls-11"><path class="cls-4" d="M221.35,32.92v-.55c.26-.83-.1-1.73.28-2.55.29-.27.63-.16,1-.09.58.13.7-.17.64-.65s-.16-.89-.25-1.34a16,16,0,0,1-.25-3.52,7.63,7.63,0,0,1,.74-2.52,30,30,0,0,1,2.36-4.91c.19-.32.35-.74.86-.66.3.43,0,.82-.07,1.22a19.7,19.7,0,0,0,.59,13.9,12.57,12.57,0,0,0,5,6,10,10,0,0,0,11.29-.58C247,34,248.57,30.26,249.11,26a18.88,18.88,0,0,0-1-8.79,14.52,14.52,0,0,0-4.29-6.46c-3.2-2.69-6.76-3-10.57-1.47-.41.17-.78.51-1.28.37-.34-.36,0-.63.18-.83a29.07,29.07,0,0,1,5.31-4.06,1.2,1.2,0,0,1,.7-.15,12.32,12.32,0,0,1,3.45.71c.53.19.73,0,.68-.56a6.06,6.06,0,0,1-.19-2.16,2.72,2.72,0,0,1,2.34-1c.52.27.5.8.58,1.26a16.52,16.52,0,0,0,3.45,7.54,9.86,9.86,0,0,0,15.82-.08,16.52,16.52,0,0,0,3.38-7.56c.07-.38,0-.81.5-1a3.61,3.61,0,0,1,2.72,1.19,6.82,6.82,0,0,1-.21,2c0,.47.12.61.57.47a9.89,9.89,0,0,1,3.09-.63,4.85,4.85,0,0,1,2.05,1.09,26.06,26.06,0,0,1,2.61,2.07c.28.25.75.49.44,1a1.15,1.15,0,0,1-.89-.05A10.71,10.71,0,0,0,266.81,13a16.32,16.32,0,0,0-3.14,8.62,19.21,19.21,0,0,0,1.44,9.64,13,13,0,0,0,5.58,6.31,10,10,0,0,0,12.71-2.69,16.48,16.48,0,0,0,3.68-10.37,22.13,22.13,0,0,0-.26-4.81,1,1,0,0,1,.16-1c.4-.12.55.2.68.45a21.81,21.81,0,0,1,2.4,6.83,21,21,0,0,1-.37,2.84c-.11.63-.22,1.17.72,1a.37.37,0,0,1,.31.16c.14.42-.08.88.14,1.29V33.1a1.66,1.66,0,0,1-.7.69c-4.27,2.35-6.4,6.18-7.16,10.81a19.38,19.38,0,0,0,.77,9.78,2.56,2.56,0,0,1,.2,1.06,6.3,6.3,0,0,1-3,3.31,4,4,0,0,1-1.14-.54,8.86,8.86,0,0,0-8.31-.14,13.39,13.39,0,0,0-7.21,8.78,6.44,6.44,0,0,1-.54,1.64,3.67,3.67,0,0,1-2.65.45c-.42-.54-.11-1.11,0-1.66.15-1.12,0-1.32-1.08-1a10.47,10.47,0,0,1-7.05.08c-1-.35-1.22-.18-1.13,1,0,.53.26,1.08-.15,1.57a3.92,3.92,0,0,1-2.57-.26,2.47,2.47,0,0,1-.51-1.25,15.8,15.8,0,0,0-4.3-7.58,10.24,10.24,0,0,0-11.85-1.35,2.55,2.55,0,0,1-1,.47.54.54,0,0,1-.43-.11,7.72,7.72,0,0,1-2.37-3,6.76,6.76,0,0,1,.38-1.31,18.89,18.89,0,0,0-2-16.93,10.64,10.64,0,0,0-4.67-4A2.41,2.41,0,0,1,221.35,32.92Z" transform="translate(1.07 0.35)"/><path class="cls-5" d="M228.82,55.92a12.81,12.81,0,0,1-2-2.93,2.44,2.44,0,0,1,.12-1.07,14.52,14.52,0,0,0-.59-9.51,10.58,10.58,0,0,0-4.12-5,2.27,2.27,0,0,1-.66-.61l-.21-.18V32.92c4.07,1.36,6.44,4.33,7.88,8.22a19.77,19.77,0,0,1,1.22,8A18.88,18.88,0,0,1,228.82,55.92Z" transform="translate(1.07 0.35)"/><path class="cls-5" d="M285.76,52.64a15.45,15.45,0,0,1-2,2.92,37.66,37.66,0,0,1-1.19-4.93c-.55-6.11.61-11.64,5.49-15.88a11.6,11.6,0,0,1,2.81-1.65v3.83a2.54,2.54,0,0,1-.75.78c-3.08,2.28-4.35,5.48-4.58,9.17a15.54,15.54,0,0,0,.3,4.61A1.75,1.75,0,0,1,285.76,52.64Z" transform="translate(1.07 0.35)"/><path class="cls-6" d="M285.76,52.64a17.73,17.73,0,0,1-.55-5.76c.24-3.72,1.48-7,4.56-9.3a9.8,9.8,0,0,1,1.09-.65v.55a12.05,12.05,0,0,0-.36,2.32,6.75,6.75,0,0,1-.4,1.71A14.61,14.61,0,0,0,288,48a2,2,0,0,1-.19.79A19.2,19.2,0,0,1,285.76,52.64Z" transform="translate(1.07 0.35)"/><path class="cls-7" d="M259-.23c.37.37.87.09,1.28.23a4.54,4.54,0,0,1-3.48,4.18,3.93,3.93,0,0,1-4-3.29c-.06-.36-.16-.72.12-1,.14,0,.34,0,.38-.2Z" transform="translate(1.07 0.35)"/><path class="cls-7" d="M259.13,69c-.18.08-.46-.09-.56.2h-4.93v-.17c-.15-.38.07-.64.29-.89a3.46,3.46,0,0,1,4.83-.16C259,68.27,259.37,68.55,259.13,69Z" transform="translate(1.07 0.35)"/><path class="cls-5" d="M226.63,16.12a27.23,27.23,0,0,1,5.29-6.56,1.73,1.73,0,0,0,.75-.29,10.06,10.06,0,0,1,11.71,1.52,17.15,17.15,0,0,1,5.1,11.52,18.42,18.42,0,0,1-1.91,9.93,11.66,11.66,0,0,1-8,6.55,9.76,9.76,0,0,1-8.66-2.09,15.3,15.3,0,0,1-5.33-10.21,19.53,19.53,0,0,1,1.06-10A1.08,1.08,0,0,0,226.63,16.12Z" transform="translate(1.07 0.35)"/><path class="cls-5" d="M279.56,8.83a30.79,30.79,0,0,1,7.37,9.51,1.8,1.8,0,0,1,.1.33,29.09,29.09,0,0,1,.36,6.25,16.22,16.22,0,0,1-4.76,11.18A9.9,9.9,0,0,1,276.41,39c-4.41.39-7.6-1.6-10.05-5a17,17,0,0,1-3.07-10,18.66,18.66,0,0,1,2-9.3A11.84,11.84,0,0,1,273,8.4,10.88,10.88,0,0,1,279.56,8.83Z" transform="translate(1.07 0.35)"/><path class="cls-5" d="M244.49,48a17.51,17.51,0,0,1,3.27-10.77c3.31-4.57,8.8-6,13.31-3.54,3.62,1.94,5.54,5.24,6.6,9.08a19,19,0,0,1-1,13.29c-1.65,3.62-4.23,6.39-8.33,7.21a9.51,9.51,0,0,1-8.54-2.33C245.92,57.46,244.51,53,244.49,48Z" transform="translate(1.07 0.35)"/><path class="cls-5" d="M265.32,1a9.73,9.73,0,0,1,2.93.93c-.19.81-.35,1.63-.57,2.44-1.16,4.17-3.36,7.53-7.39,9.48a10,10,0,0,1-10-1.3,15.79,15.79,0,0,1-5.6-10.34,2.19,2.19,0,0,0-.15-.43,9.52,9.52,0,0,1,2.9-.91c.41.31.42.79.51,1.23a12.07,12.07,0,0,0,3.51,6.45,7,7,0,0,0,9.71.14,11.76,11.76,0,0,0,3.61-6.38C264.87,1.81,264.87,1.29,265.32,1Z" transform="translate(1.07 0.35)"/><path class="cls-5" d="M233.92,61.21a16,16,0,0,1-2.55-2.38,9.6,9.6,0,0,1,6.46-2,11,11,0,0,1,9.37,6.25,15.45,15.45,0,0,1,1.88,5.36,12.13,12.13,0,0,1-2.92-.73,1.89,1.89,0,0,1-.79-1.07A12.7,12.7,0,0,0,243,63.12a7.49,7.49,0,0,0-7.69-2A2.08,2.08,0,0,1,233.92,61.21Z" transform="translate(1.07 0.35)"/><path class="cls-5" d="M281,58.66A12,12,0,0,1,278.47,61a1.89,1.89,0,0,1-1.15-.08,7.27,7.27,0,0,0-5.76.95,11.3,11.3,0,0,0-4.17,4.58,1.91,1.91,0,0,1-.8,1.07,9.8,9.8,0,0,1-2.91.78c.94-5.06,3.6-8.86,8.41-10.84A8.61,8.61,0,0,1,281,58.66Z" transform="translate(1.07 0.35)"/><path class="cls-8" d="M242.86,41.48a17.72,17.72,0,0,0-.63,3.13,23.36,23.36,0,0,0,0,6.68,20.76,20.76,0,0,0,.58,3c.17.56-.12.55-.53.39a16.38,16.38,0,0,0-2.67-.79,12.79,12.79,0,0,0-6.76.7c-.24.08-.51.34-.76.14s0-.52.06-.75a25.6,25.6,0,0,0,.68-7.55,20.74,20.74,0,0,0-.76-4.62c-.24-.81.1-.65.57-.5a16,16,0,0,0,5.13.91,13.83,13.83,0,0,0,4.4-.92C242.45,41.2,242.79,40.91,242.86,41.48Z" transform="translate(1.07 0.35)"/><path class="cls-8" d="M270.43,53.74c.27-1.3.4-2.71.59-4.11a22.62,22.62,0,0,0-.32-5.93c-.08-.65-.29-1.28-.41-1.93,0-.19-.22-.42,0-.58s.39,0,.59.06a12.64,12.64,0,0,0,5.12,1,13.55,13.55,0,0,0,4.12-.93c.63-.23.8-.21.61.56a24.62,24.62,0,0,0,0,12.07c.21.78,0,.75-.64.61a19.08,19.08,0,0,0-4.52-.83,11.25,11.25,0,0,0-4.14.8C270.62,54.81,270.38,54.64,270.43,53.74Z" transform="translate(1.07 0.35)"/><path class="cls-8" d="M252,23.47a33.63,33.63,0,0,0-.66-5.15c-.11-.45-.26-.94.09-1.3s.77,0,1.16.14a10.68,10.68,0,0,0,7.75-.1c1-.4,1.23-.27,1.11.79-.18,1.61-.43,3.22-.61,4.83a24.75,24.75,0,0,0,.17,3.77,10,10,0,0,0,.59,3c.24.67-.09.87-.89.64a15.29,15.29,0,0,0-4.51-.82,14.36,14.36,0,0,0-4,.79c-.9.27-1.08.17-1-.74.16-1.4.49-2.77.62-4.18C252,24.61,252,24.1,252,23.47Z" transform="translate(1.07 0.35)"/><path class="cls-8" d="M259.13,69c-.93-2.2-4.42-2.16-5.49,0-.66-.11-1.37.21-2-.22,0-.79-.28-1.54-.21-2.34.05-.58.19-.8.85-.61a15.46,15.46,0,0,0,3.5.8,11.94,11.94,0,0,0,4.43-.75c1.14-.39,1.37-.22,1.25,1-.06.65-.24,1.3-.36,1.94A4.75,4.75,0,0,1,259.13,69Z" transform="translate(1.07 0.35)"/><path class="cls-8" d="M238.13,4.82a12.23,12.23,0,0,1,4.2-2.19c.12.88.26,1.77.36,2.66.06.5-.07.73-.67.49A17.3,17.3,0,0,0,238.13,4.82Z" transform="translate(1.07 0.35)"/><path class="cls-8" d="M270.79,3a12.85,12.85,0,0,1,3.66,2,10.33,10.33,0,0,0-3.38.77c-.54.2-.81.3-.68-.51S270.64,3.75,270.79,3Z" transform="translate(1.07 0.35)"/><path class="cls-8" d="M221.74,29.8a19.71,19.71,0,0,1,.82-4.37,3.09,3.09,0,0,1,.43-1.28,21.71,21.71,0,0,0,.56,5c.17,1,0,1.17-1,.86Z" transform="translate(1.07 0.35)"/><path class="cls-8" d="M289.76,26a9.61,9.61,0,0,1,.71,3,3.83,3.83,0,0,1,.18,1c-1.41.27-1.4.27-1.26-1.19A16.75,16.75,0,0,0,289.76,26Z" transform="translate(1.07 0.35)"/><path class="cls-6" d="M221.56,36.75a8.31,8.31,0,0,1,4.27,3.92,14.44,14.44,0,0,1,1.37,11.42,1.67,1.67,0,0,1-.39.9A10.65,10.65,0,0,1,225,49.71a5.13,5.13,0,0,1-.32-1.86,9.1,9.1,0,0,0-2.11-6.22c-.23-.27-.29-.67-.65-.85A18.83,18.83,0,0,1,221.56,36.75Z" transform="translate(1.07 0.35)"/><path class="cls-6" d="M233.92,61.21a9.71,9.71,0,0,1,5.15-.6,8.74,8.74,0,0,1,6,4.74c.42.77.75,1.59,1.12,2.38a19.4,19.4,0,0,1-4-1.45A9,9,0,0,0,238,63.93a1,1,0,0,1-.41-.18,14.63,14.63,0,0,1-2.92-1.93C234.4,61.63,234.16,61.41,233.92,61.21Z" transform="translate(1.07 0.35)"/><path class="cls-8" d="M221.92,40.78a5.15,5.15,0,0,1,2.33,3,9.65,9.65,0,0,1,.75,4.32c0,.55,0,1.09,0,1.64a25.67,25.67,0,0,1-2.74-7.4C222.14,41.8,222,41.29,221.92,40.78Z" transform="translate(1.07 0.35)"/><path class="cls-8" d="M237.58,63.75a5.23,5.23,0,0,1,4.55,2.53,28.71,28.71,0,0,1-4.27-2.2C237.74,64,237.67,63.86,237.58,63.75Z" transform="translate(1.07 0.35)"/><path class="cls-6" d="M265.32,1a12.88,12.88,0,0,1-3.9,7.88,7.42,7.42,0,0,1-10.11,0,12.83,12.83,0,0,1-3.88-8,10.48,10.48,0,0,1,2.39-.55c.41.26.44.7.52,1.12a8.44,8.44,0,0,0,2.08,4.07c2.38,2.72,6.61,2.29,8.76-.84a8,8,0,0,0,1.28-3c.08-.44.08-.93.5-1.23A7.13,7.13,0,0,1,265.32,1Z" transform="translate(1.07 0.35)"/><path class="cls-8" d="M263,.42a8.21,8.21,0,0,1-3.22,6.09,5.7,5.7,0,0,1-7.14-.42,9.17,9.17,0,0,1-2.78-5.8,11.86,11.86,0,0,1,3.08-.37,4.32,4.32,0,0,0,1.86,3.44c1.64,1,3.14.61,4.32-1,.55-.74.65-1.68,1.14-2.43A12.12,12.12,0,0,1,263,.42Z" transform="translate(1.07 0.35)"/><path class="cls-6" d="M266.59,67.55a11.13,11.13,0,0,1,6.23-6.62,7.12,7.12,0,0,1,5.65.1,16,16,0,0,1-4,2.9,24.74,24.74,0,0,0-2.93,1.65A18.63,18.63,0,0,1,266.59,67.55Z" transform="translate(1.07 0.35)"/><path class="cls-8" d="M287.76,48.8a11.08,11.08,0,0,1,1.61-6.52,2.34,2.34,0,0,1,.73-.77,19.1,19.1,0,0,1-1.41,5.15A7,7,0,0,1,287.76,48.8Z" transform="translate(1.07 0.35)"/><path class="cls-8" d="M271.52,65.58a5.43,5.43,0,0,1,2.93-1.65A9.75,9.75,0,0,1,271.52,65.58Z" transform="translate(1.07 0.35)"/><path class="cls-6" d="M228.09,23.68a13.78,13.78,0,0,1,2.71-8.95,8.32,8.32,0,0,1,5.06-3c4.73-1,8.19,2,9.71,5.82a14.62,14.62,0,0,1-.74,13.22c-1.18,2.08-2.74,3.9-5.21,4.35-3,.54-5.85.23-8.12-2.06a12.28,12.28,0,0,1-3.23-6.5A17.7,17.7,0,0,1,228.09,23.68Z" transform="translate(1.07 0.35)"/><path class="cls-6" d="M266,23.71a13.28,13.28,0,0,1,2.59-8.55,8.39,8.39,0,0,1,9.77-3.07,8.67,8.67,0,0,1,4.89,4.64,15.42,15.42,0,0,1,1.52,7.49,13.66,13.66,0,0,1-3.18,8.53c-3,3.62-8.86,3.23-11.92.3A12.51,12.51,0,0,1,266,23.71Z" transform="translate(1.07 0.35)"/><path class="cls-6" d="M247.26,48a13.43,13.43,0,0,1,2.55-8.72,8.19,8.19,0,0,1,12.25-1,12.3,12.3,0,0,1,3.46,7.43,16,16,0,0,1-1.13,8.44,8.89,8.89,0,0,1-8.66,5.72,7.81,7.81,0,0,1-4.65-2.1C248.11,55.2,247.11,51.82,247.26,48Z" transform="translate(1.07 0.35)"/><path class="cls-7" d="M237.54,52.82a3.92,3.92,0,0,1-3.64-2.54,5.37,5.37,0,0,1,1-6,3.51,3.51,0,0,1,5.86.92c1.06,2,.89,5.32-1,6.84A2.92,2.92,0,0,1,237.54,52.82Z" transform="translate(1.07 0.35)"/><path class="cls-7" d="M271.7,47.64a4.67,4.67,0,0,1,2.89-4.48,3.36,3.36,0,0,1,3.77,1.46,5.84,5.84,0,0,1-.71,7.45,3.48,3.48,0,0,1-4.84-.5A6.1,6.1,0,0,1,271.7,47.64Z" transform="translate(1.07 0.35)"/><path class="cls-7" d="M260.21,23.64a5.1,5.1,0,0,1-1.09,3.48,3.29,3.29,0,0,1-5.56-.21c-1.48-2.3-1.47-5.61.72-7.51a3.43,3.43,0,0,1,4.82.53A6,6,0,0,1,260.21,23.64Z" transform="translate(1.07 0.35)"/><path class="cls-8" d="M244.17,23.59a9.23,9.23,0,0,1-2.4,6.64c-2.33,2.46-5.32,2.7-8.08.48a8.38,8.38,0,0,1-2.88-5.94,9.71,9.71,0,0,1,1.88-7.39,6,6,0,0,1,8.73-.81A9.21,9.21,0,0,1,244.17,23.59Z" transform="translate(1.07 0.35)"/><path class="cls-8" d="M282.1,24.14a9,9,0,0,1-2.35,6.05c-2.13,2.22-4.69,2.75-7.4.87C270,29.43,269.11,27,269,24.19a9.93,9.93,0,0,1,1.31-5.92c2.43-3.94,7.22-4.52,10-.6A9.9,9.9,0,0,1,282.1,24.14Z" transform="translate(1.07 0.35)"/><path class="cls-8" d="M263,48.12a9.05,9.05,0,0,1-2.07,6.22,5.73,5.73,0,0,1-8.22.7c-3.61-2.95-3.67-10.38-.54-13.66a5.81,5.81,0,0,1,9,.55A9.39,9.39,0,0,1,263,48.12Z" transform="translate(1.07 0.35)"/><path class="cls-7" d="M241.43,23.59a5.43,5.43,0,0,1-2,4.34c-1.75,1.31-4.22.26-5.12-1.23a5.71,5.71,0,0,1,.47-6.9,3.66,3.66,0,0,1,5.95.82A5.89,5.89,0,0,1,241.43,23.59Z" transform="translate(1.07 0.35)"/><path class="cls-7" d="M271.7,23a4.76,4.76,0,0,1,1.87-3.68,3.42,3.42,0,0,1,5.07,1.29,6.16,6.16,0,0,1-.37,6.5,3.41,3.41,0,0,1-5.65-.16A6.52,6.52,0,0,1,271.7,23Z" transform="translate(1.07 0.35)"/><path class="cls-7" d="M260.23,48c-.07,1.84-.48,3.58-2.31,4.45a3.18,3.18,0,0,1-4.49-1.4,5.86,5.86,0,0,1,.33-6.7,3.31,3.31,0,0,1,5.33,0A5.66,5.66,0,0,1,260.23,48Z" transform="translate(1.07 0.35)"/></g></g><g class="cls-2"><g class="cls-12"><path class="cls-4" d="M4.76,193.5v-.78c.36-1.19-.15-2.48.4-3.65.42-.39.9-.23,1.35-.13.84.18,1-.24.92-.93s-.23-1.28-.36-1.92a23,23,0,0,1-.36-5,11.39,11.39,0,0,1,1.07-3.61,42.57,42.57,0,0,1,3.38-7c.27-.46.5-1.06,1.23-.93.43.6.06,1.16-.11,1.73a28.28,28.28,0,0,0,.85,19.91,18.15,18.15,0,0,0,7.14,8.6,14.35,14.35,0,0,0,16.18-.83c5-3.85,7.29-9.18,8.06-15.27A27.09,27.09,0,0,0,43.15,171,20.87,20.87,0,0,0,37,161.77c-4.59-3.86-9.68-4.35-15.14-2.1-.59.24-1.12.72-1.84.53-.49-.52,0-.91.27-1.19a41.3,41.3,0,0,1,7.6-5.82,1.73,1.73,0,0,1,1-.22,18.18,18.18,0,0,1,5,1c.75.28,1,0,1-.81a8.92,8.92,0,0,1-.27-3.09,3.91,3.91,0,0,1,3.36-1.44c.74.39.71,1.14.83,1.81a23.59,23.59,0,0,0,4.94,10.79c6.13,7.56,16.58,7.49,22.65-.11a23.77,23.77,0,0,0,4.85-10.83c.1-.55.07-1.16.72-1.44a5.12,5.12,0,0,1,3.88,1.7,9.5,9.5,0,0,1-.29,2.81c0,.67.16.87.82.67a13.87,13.87,0,0,1,4.42-.9,6.77,6.77,0,0,1,2.93,1.56,38.07,38.07,0,0,1,3.74,3c.4.36,1.08.69.62,1.46a1.74,1.74,0,0,1-1.27-.07c-5.91-1.9-12.65.22-16.87,5.84a23.34,23.34,0,0,0-4.51,12.35,27.47,27.47,0,0,0,2.07,13.8,18.59,18.59,0,0,0,8,9,14.31,14.31,0,0,0,18.21-3.85,23.52,23.52,0,0,0,5.26-14.85,30.59,30.59,0,0,0-.36-6.89,1.5,1.5,0,0,1,.22-1.37c.58-.18.8.28,1,.64a31.25,31.25,0,0,1,3.44,9.78,31.17,31.17,0,0,1-.52,4.08c-.17.89-.32,1.66,1,1.45.16,0,.32.1.44.23.2.6-.12,1.26.19,1.84v2.62a2.48,2.48,0,0,1-1,1c-6.13,3.36-9.17,8.84-10.26,15.48a27.69,27.69,0,0,0,1.1,14,3.41,3.41,0,0,1,.29,1.52c-1,2-2.15,3.8-4.3,4.74a5.45,5.45,0,0,1-1.63-.78,12.72,12.72,0,0,0-11.9-.2c-5.39,2.58-8.67,6.92-10.33,12.58a8.81,8.81,0,0,1-.77,2.34,5.27,5.27,0,0,1-3.8.65c-.6-.78-.15-1.59-.05-2.38.21-1.6,0-1.88-1.55-1.35a15,15,0,0,1-10.1.1c-1.5-.5-1.75-.24-1.62,1.37.06.76.37,1.55-.22,2.25a5.6,5.6,0,0,1-3.67-.38,3.42,3.42,0,0,1-.73-1.78,22.67,22.67,0,0,0-6.16-10.87,14.67,14.67,0,0,0-17-1.92,3.86,3.86,0,0,1-1.4.67.84.84,0,0,1-.62-.16c-1.32-1.28-2.8-2.45-3.39-4.32a8.7,8.7,0,0,1,.54-1.87c2.81-8.53,2-16.66-2.85-24.26a15.26,15.26,0,0,0-6.69-5.66A3.26,3.26,0,0,1,4.76,193.5Z" transform="translate(1.07 0.35)"/><path class="cls-5" d="M15.46,226.45a18.14,18.14,0,0,1-2.89-4.2,3.33,3.33,0,0,1,.18-1.53,20.85,20.85,0,0,0-.84-13.63A15.18,15.18,0,0,0,6,199.87a3.16,3.16,0,0,1-.93-.89l-.3-.25V193.5c5.82,1.95,9.22,6.2,11.28,11.78a28.16,28.16,0,0,1,1.75,11.49A27.1,27.1,0,0,1,15.46,226.45Z" transform="translate(1.07 0.35)"/><path class="cls-5" d="M97,221.75a22.19,22.19,0,0,1-2.88,4.18c-.54-2.36-1.48-4.62-1.7-7.05-.8-8.77.87-16.69,7.85-22.75a16.58,16.58,0,0,1,4-2.36v5.48a3.66,3.66,0,0,1-1.06,1.12c-4.43,3.26-6.24,7.85-6.56,13.14a22.15,22.15,0,0,0,.42,6.59A2.47,2.47,0,0,1,97,221.75Z" transform="translate(1.07 0.35)"/><path class="cls-6" d="M97,221.75a25.48,25.48,0,0,1-.79-8.25c.34-5.33,2.13-10,6.53-13.32a15.28,15.28,0,0,1,1.56-.93V200c-.47,1.06-.25,2.22-.51,3.32a10.27,10.27,0,0,1-.57,2.45,20.83,20.83,0,0,0-3.09,9.31,2.76,2.76,0,0,1-.27,1.13A27.11,27.11,0,0,1,97,221.75Z" transform="translate(1.07 0.35)"/><path class="cls-7" d="M58.65,146c.53.54,1.24.13,1.83.34.05,2.65-2.51,5.7-5,6s-5.15-1.9-5.66-4.71c-.09-.51-.24-1,.17-1.48.2-.07.48,0,.55-.29Z" transform="translate(1.07 0.35)"/><path class="cls-7" d="M58.86,245.2c-.26.12-.65-.12-.8.3H51v-.25c-.21-.54.11-.92.42-1.28a5,5,0,0,1,6.91-.22C58.71,244.14,59.2,244.53,58.86,245.2Z" transform="translate(1.07 0.35)"/><path class="cls-5" d="M12.32,169.45a38.81,38.81,0,0,1,7.57-9.4,2.35,2.35,0,0,0,1.08-.42,14.43,14.43,0,0,1,16.77,2.19c4.66,4.53,6.81,10.08,7.3,16.5a26.23,26.23,0,0,1-2.73,14.21c-2.43,4.77-6.12,8.2-11.51,9.39a14,14,0,0,1-12.4-3c-4.62-3.79-6.82-8.86-7.63-14.63A28.23,28.23,0,0,1,12.28,170,1.71,1.71,0,0,0,12.32,169.45Z" transform="translate(1.07 0.35)"/><path class="cls-5" d="M88.12,159a43.63,43.63,0,0,1,10.55,13.61,2.7,2.7,0,0,1,.16.48,42,42,0,0,1,.5,9c-.31,6.16-2.35,11.65-6.82,16a14.12,14.12,0,0,1-8.9,4.11c-6.31.55-10.88-2.29-14.4-7.12a24.35,24.35,0,0,1-4.39-14.33,26.63,26.63,0,0,1,2.92-13.32c2.39-4.48,5.9-7.71,10.93-9A15.6,15.6,0,0,1,88.12,159Z" transform="translate(1.07 0.35)"/><path class="cls-5" d="M37.9,215a25.11,25.11,0,0,1,4.68-15.42c4.74-6.55,12.6-8.53,19.06-5.07,5.18,2.78,7.93,7.51,9.46,13a27.25,27.25,0,0,1-1.44,19c-2.36,5.18-6.06,9.15-11.93,10.32a13.61,13.61,0,0,1-12.23-3.33C40,228.66,37.93,222.25,37.9,215Z" transform="translate(1.07 0.35)"/><path class="cls-5" d="M67.73,147.75a14.49,14.49,0,0,1,4.2,1.33c-.28,1.16-.51,2.34-.83,3.49-1.65,6-4.8,10.79-10.58,13.58a14.24,14.24,0,0,1-14.33-1.85,22.58,22.58,0,0,1-8-14.82,2.79,2.79,0,0,0-.22-.61,13.28,13.28,0,0,1,4.16-1.31,2.61,2.61,0,0,1,.73,1.77,17.27,17.27,0,0,0,5,9.23,10,10,0,0,0,13.91.2,16.78,16.78,0,0,0,5.17-9.14C67.09,149,67.08,148.21,67.73,147.75Z" transform="translate(1.07 0.35)"/><path class="cls-5" d="M22.75,234a23.57,23.57,0,0,1-3.65-3.41,13.73,13.73,0,0,1,9.26-2.83c6.13.4,10.53,3.6,13.41,8.95a21.86,21.86,0,0,1,2.69,7.68,18.2,18.2,0,0,1-4.17-1,2.84,2.84,0,0,1-1.14-1.54,17.88,17.88,0,0,0-3.37-5.07,10.7,10.7,0,0,0-11-2.91A3,3,0,0,1,22.75,234Z" transform="translate(1.07 0.35)"/><path class="cls-5" d="M90.21,230.38a17.24,17.24,0,0,1-3.65,3.38,2.67,2.67,0,0,1-1.65-.11A10.45,10.45,0,0,0,76.66,235a16.27,16.27,0,0,0-6,6.56,2.78,2.78,0,0,1-1.14,1.53,14.09,14.09,0,0,1-4.17,1.12c1.34-7.25,5.15-12.69,12.05-15.52A12.32,12.32,0,0,1,90.21,230.38Z" transform="translate(1.07 0.35)"/><path class="cls-8" d="M35.56,205.76a26.07,26.07,0,0,0-.9,4.49,33.29,33.29,0,0,0,0,9.56,27.53,27.53,0,0,0,.82,4.31c.25.81-.17.8-.75.57a23.36,23.36,0,0,0-3.83-1.13,18.33,18.33,0,0,0-9.67,1c-.35.12-.75.49-1.1.2s0-.74.09-1.07a36.47,36.47,0,0,0,1-10.81,29.16,29.16,0,0,0-1.09-6.62c-.34-1.16.14-.93.81-.71a22.81,22.81,0,0,0,7.36,1.3,19.43,19.43,0,0,0,6.3-1.32C35,205.37,35.46,205,35.56,205.76Z" transform="translate(1.07 0.35)"/><path class="cls-8" d="M75.05,223.32c.38-1.86.57-3.88.85-5.88.39-2.89-.12-5.68-.47-8.49-.11-.93-.41-1.84-.59-2.77,0-.27-.32-.6-.06-.83s.56,0,.86.08A17.86,17.86,0,0,0,83,206.82a19,19,0,0,0,5.9-1.33c.91-.32,1.15-.29.87.81a35.37,35.37,0,0,0,0,17.28c.31,1.12,0,1.07-.9.88a27.25,27.25,0,0,0-6.47-1.19,16,16,0,0,0-5.94,1.14C75.31,224.85,75,224.61,75.05,223.32Z" transform="translate(1.07 0.35)"/><path class="cls-8" d="M48.68,180a49.86,49.86,0,0,0-1-7.39c-.15-.63-.37-1.34.13-1.85s1.11,0,1.66.2a15.35,15.35,0,0,0,11.1-.15c1.41-.57,1.76-.39,1.59,1.13-.25,2.31-.61,4.61-.87,6.92a35.74,35.74,0,0,0,.25,5.4,14.26,14.26,0,0,0,.84,4.29c.34.95-.13,1.24-1.27.91a22.14,22.14,0,0,0-6.46-1.18A20.26,20.26,0,0,0,49,189.4c-1.28.39-1.55.24-1.39-1.06.24-2,.71-4,.9-6C48.6,181.61,48.58,180.88,48.68,180Z" transform="translate(1.07 0.35)"/><path class="cls-8" d="M58.86,245.2c-1.32-3.15-6.32-3.09-7.86.05-1-.16-2,.29-2.85-.31.07-1.13-.4-2.21-.3-3.35.08-.84.27-1.16,1.22-.88a21.9,21.9,0,0,0,5,1.14,17.1,17.1,0,0,0,6.33-1.07c1.64-.56,2-.31,1.8,1.38-.09.93-.35,1.85-.53,2.78A6.94,6.94,0,0,1,58.86,245.2Z" transform="translate(1.07 0.35)"/><path class="cls-8" d="M28.78,153.27a17.9,17.9,0,0,1,6-3.15c.18,1.27.37,2.54.52,3.81.08.72-.11,1.06-1,.71A24.75,24.75,0,0,0,28.78,153.27Z" transform="translate(1.07 0.35)"/><path class="cls-8" d="M75.56,150.64a18.38,18.38,0,0,1,5.24,2.89A14.9,14.9,0,0,0,76,154.64c-.78.28-1.15.42-1-.73S75.34,151.73,75.56,150.64Z" transform="translate(1.07 0.35)"/><path class="cls-8" d="M5.32,189a26.72,26.72,0,0,1,1.18-6.26A4.18,4.18,0,0,1,7.11,181a31,31,0,0,0,.79,7.18c.24,1.43-.06,1.68-1.47,1.24Z" transform="translate(1.07 0.35)"/><path class="cls-8" d="M102.74,183.57a14.28,14.28,0,0,1,1,4.28,5.53,5.53,0,0,1,.26,1.45c-2,.4-2,.4-1.79-1.69A27.76,27.76,0,0,0,102.74,183.57Z" transform="translate(1.07 0.35)"/><path class="cls-6" d="M5.06,199a11.92,11.92,0,0,1,6.11,5.63,20.74,20.74,0,0,1,2,16.35,2.48,2.48,0,0,1-.57,1.29,15.32,15.32,0,0,1-2.59-4.7,7.06,7.06,0,0,1-.45-2.66,13.08,13.08,0,0,0-3-8.91c-.34-.39-.43-1-.93-1.22A26.08,26.08,0,0,1,5.06,199Z" transform="translate(1.07 0.35)"/><path class="cls-6" d="M22.75,234a14,14,0,0,1,7.38-.86c4,.83,6.64,3.36,8.55,6.8.61,1.09,1.08,2.27,1.61,3.41a28,28,0,0,1-5.77-2.09,12.85,12.85,0,0,0-5.94-3.37,1.37,1.37,0,0,1-.58-.25,22,22,0,0,1-4.19-2.76C23.44,234.63,23.11,234.31,22.75,234Z" transform="translate(1.07 0.35)"/><path class="cls-8" d="M5.58,204.76c1.82.86,2.6,2.57,3.33,4.25a14,14,0,0,1,1.08,6.2c0,.78,0,1.56,0,2.34A36.78,36.78,0,0,1,6.06,207C5.89,206.23,5.74,205.49,5.58,204.76Z" transform="translate(1.07 0.35)"/><path class="cls-8" d="M28,237.66c2.74.18,5.06,1.12,6.52,3.62a40.67,40.67,0,0,1-6.12-3.15C28.23,238,28.13,237.82,28,237.66Z" transform="translate(1.07 0.35)"/><path class="cls-6" d="M67.73,147.75A18.48,18.48,0,0,1,62.14,159a10.62,10.62,0,0,1-14.47,0,18.28,18.28,0,0,1-5.56-11.43,15,15,0,0,1,3.43-.79c.57.38.62,1,.73,1.61a12.11,12.11,0,0,0,3,5.83c3.41,3.89,9.46,3.28,12.55-1.21a11.32,11.32,0,0,0,1.83-4.28c.12-.62.11-1.32.72-1.75A10,10,0,0,1,67.73,147.75Z" transform="translate(1.07 0.35)"/><path class="cls-8" d="M64.35,147c-.4,3.51-1.64,6.52-4.62,8.71a8.15,8.15,0,0,1-10.21-.59,13.07,13.07,0,0,1-4-8.32,17.15,17.15,0,0,1,4.4-.52c.27,2,.82,3.82,2.66,4.93,2.35,1.42,4.5.86,6.2-1.43.79-1.07.92-2.41,1.62-3.5A17.45,17.45,0,0,1,64.35,147Z" transform="translate(1.07 0.35)"/><path class="cls-6" d="M69.55,243.1a16,16,0,0,1,8.91-9.48,10.23,10.23,0,0,1,8.1.14,22.94,22.94,0,0,1-5.76,4.16,33.11,33.11,0,0,0-4.19,2.36A26.94,26.94,0,0,1,69.55,243.1Z" transform="translate(1.07 0.35)"/><path class="cls-8" d="M99.86,216.25a15.91,15.91,0,0,1,2.31-9.34,3.35,3.35,0,0,1,1-1.1,27.77,27.77,0,0,1-2,7.38A9.94,9.94,0,0,1,99.86,216.25Z" transform="translate(1.07 0.35)"/><path class="cls-8" d="M76.61,240.28a7.71,7.71,0,0,1,4.19-2.36A14,14,0,0,1,76.61,240.28Z" transform="translate(1.07 0.35)"/><path class="cls-6" d="M14.41,180.28c0-4.68.91-9.05,3.88-12.82a11.94,11.94,0,0,1,7.24-4.26c6.78-1.45,11.74,2.9,13.91,8.33,2.57,6.44,2.42,12.83-1,18.95-1.7,3-3.94,5.57-7.47,6.22-4.24.78-8.38.33-11.63-2.95a17.59,17.59,0,0,1-4.62-9.32A23.09,23.09,0,0,1,14.41,180.28Z" transform="translate(1.07 0.35)"/><path class="cls-6" d="M68.76,180.32a19,19,0,0,1,3.71-12.25,12,12,0,0,1,14-4.4,12.43,12.43,0,0,1,7,6.65,22.26,22.26,0,0,1,2.19,10.73,19.64,19.64,0,0,1-4.56,12.21c-4.36,5.19-12.69,4.63-17.07.43A18,18,0,0,1,68.76,180.32Z" transform="translate(1.07 0.35)"/><path class="cls-6" d="M41.86,215.1a19.18,19.18,0,0,1,3.66-12.48,11.72,11.72,0,0,1,17.54-1.39,17.61,17.61,0,0,1,5,10.63A23,23,0,0,1,66.4,224c-2.07,5-6.91,8.56-12.41,8.19a11.29,11.29,0,0,1-6.66-3C43.08,225.42,41.65,220.57,41.86,215.1Z" transform="translate(1.07 0.35)"/><path class="cls-7" d="M27.94,222c-2.57,0-4.2-1.52-5.22-3.64a7.7,7.7,0,0,1,1.45-8.62c2.78-2.7,6.59-2.16,8.4,1.3,1.52,2.94,1.28,7.63-1.43,9.81A4.22,4.22,0,0,1,27.94,222Z" transform="translate(1.07 0.35)"/><path class="cls-7" d="M76.87,214.59A6.68,6.68,0,0,1,81,208.17a4.79,4.79,0,0,1,5.39,2.1c2.2,3.42,1.92,8-1,10.66a5,5,0,0,1-6.92-.72A8.65,8.65,0,0,1,76.87,214.59Z" transform="translate(1.07 0.35)"/><path class="cls-7" d="M60.41,180.21a7.24,7.24,0,0,1-1.57,5c-2.07,2.56-5.81,3-8-.3s-2.1-8,1-10.75a4.9,4.9,0,0,1,6.9.75A8.55,8.55,0,0,1,60.41,180.21Z" transform="translate(1.07 0.35)"/><path class="cls-8" d="M37.44,180.14A13.21,13.21,0,0,1,34,189.65c-3.33,3.53-7.63,3.87-11.58.69-2.65-2.13-3.73-5.14-4.12-8.51A14,14,0,0,1,21,171.25c2.8-3.6,8.64-4.83,12.49-1.16C36.39,172.85,37.42,176.28,37.44,180.14Z" transform="translate(1.07 0.35)"/><path class="cls-8" d="M91.76,180.93a12.89,12.89,0,0,1-3.36,8.66c-3.06,3.19-6.73,3.94-10.61,1.25-3.36-2.33-4.63-5.85-4.85-9.83a14.2,14.2,0,0,1,1.88-8.49c3.47-5.63,10.33-6.47,14.35-.85C91.07,174.32,91.76,176.81,91.76,180.93Z" transform="translate(1.07 0.35)"/><path class="cls-8" d="M64.33,215.28a12.94,12.94,0,0,1-3,8.9,8.2,8.2,0,0,1-11.77,1c-5.18-4.23-5.26-14.87-.77-19.57a8.31,8.31,0,0,1,12.9.78C63.72,209.21,64.33,211.48,64.33,215.28Z" transform="translate(1.07 0.35)"/><path class="cls-7" d="M33.52,180.15c-.18,2.42-.75,4.61-2.88,6.21-2.5,1.88-6,.37-7.33-1.75a8.18,8.18,0,0,1,.69-9.89,5.21,5.21,0,0,1,8.51,1.18A8.47,8.47,0,0,1,33.52,180.15Z" transform="translate(1.07 0.35)"/><path class="cls-7" d="M76.87,179.25A6.78,6.78,0,0,1,79.54,174a4.9,4.9,0,0,1,7.26,1.84,8.82,8.82,0,0,1-.52,9.32,4.89,4.89,0,0,1-8.1-.23C77.21,183.28,76.87,182.05,76.87,179.25Z" transform="translate(1.07 0.35)"/><path class="cls-7" d="M60.43,215.1c-.09,2.64-.67,5.13-3.31,6.38a4.53,4.53,0,0,1-6.42-2,8.38,8.38,0,0,1,.48-9.59,4.71,4.71,0,0,1,7.62,0A8,8,0,0,1,60.43,215.1Z" transform="translate(1.07 0.35)"/></g></g></g></g></svg>