<svg xmlns="http://www.w3.org/2000/svg" viewBox="0 0 47.65 14.28"><defs><style>.cls-1{fill:#e3c0c3;}</style></defs><g id="Calque_2" data-name="Calque 2"><g id="Calque_1-2" data-name="Calque 1"><path class="cls-1" d="M7.14,14.28A7.14,7.14,0,1,1,14.3,7.2,7.13,7.13,0,0,1,7.14,14.28ZM6.23,3.78a16.07,16.07,0,0,0-1.64.08,10.19,10.19,0,0,0-1.89.37.66.66,0,0,0-.46.83.67.67,0,0,0,.84.44,10.36,10.36,0,0,1,2.65-.39,12.46,12.46,0,0,1,1.83.08,11,11,0,0,1,2.35.49,7,7,0,0,1,1.46.64.66.66,0,0,0,.91-.21.65.65,0,0,0-.23-.92,7.46,7.46,0,0,0-1.43-.67A13.4,13.4,0,0,0,6.23,3.78ZM5.4,6.24h0l-.75.07a8.6,8.6,0,0,0-1.57.33.52.52,0,0,0-.38.45.56.56,0,0,0,.73.6,7.74,7.74,0,0,1,2-.33,7.62,7.62,0,0,1,1.17,0,9.12,9.12,0,0,1,1.47.2,7.64,7.64,0,0,1,2.48.95.52.52,0,0,0,.31.1.58.58,0,0,0,.53-.48.55.55,0,0,0-.29-.58A9.62,9.62,0,0,0,7.26,6.32a11,11,0,0,0-1.4-.08ZM3,9.31a.43.43,0,0,0,.55.44,12,12,0,0,1,1.8-.27,8.32,8.32,0,0,1,2.17.1,6.74,6.74,0,0,1,2.3.86.39.39,0,0,0,.3.06.43.43,0,0,0,.13-.82A7.75,7.75,0,0,0,6.5,8.58a10,10,0,0,0-1.64.05,12.88,12.88,0,0,0-1.51.26A.43.43,0,0,0,3,9.31Z"/><path class="cls-1" d="M43.45,8.87,44.6,5.6a.14.14,0,0,1,.16-.12h1c.13,0,.15,0,.11.16q-1,2.52-2,5a2.37,2.37,0,0,1-.44.77,1.38,1.38,0,0,1-1,.49,2.37,2.37,0,0,1-1.28-.27c-.11-.05-.12-.08-.07-.19l.33-.73c0-.09.09-.1.17-.06a1.31,1.31,0,0,0,.52.15.55.55,0,0,0,.55-.28.32.32,0,0,0,0-.35c-.49-1.16-1-2.33-1.46-3.5a.18.18,0,0,0-.19-.13h-.78c-.09,0-.11,0-.11.12v3.59c0,.16,0,.16-.17.16h-.95c-.14,0-.15,0-.15-.15V6.71c0-.1,0-.13-.13-.13h-.37c-.08,0-.11,0-.11-.12V5.59c0-.09,0-.12.13-.12h.39c.07,0,.09,0,.09-.09A2.76,2.76,0,0,1,39,4.62a1.31,1.31,0,0,1,1.17-1,3.12,3.12,0,0,1,1.18.09.13.13,0,0,1,.12.15c0,.28,0,.55,0,.83,0,.13,0,.15-.16.11a2,2,0,0,0-.6-.1.47.47,0,0,0-.51.46c-.05.34-.05.34.29.34H42c.12,0,.16,0,.2.14L43.4,8.77A.24.24,0,0,0,43.45,8.87Z"/><path class="cls-1" d="M23.25,9.89v1.87c0,.15,0,.16-.16.16h-1c-.13,0-.15,0-.15-.15V5.62c0-.13,0-.14.14-.14.33,0,.66,0,1,0,.12,0,.13,0,.13.14v.46s.05,0,.06,0a2,2,0,0,1,2.42-.48,2.28,2.28,0,0,1,1.34,1.76,3,3,0,0,1-.24,2,2.26,2.26,0,0,1-2.76,1.11,2,2,0,0,1-.74-.5l0,0Zm0-1.93a1.53,1.53,0,0,0,.19.78,1.24,1.24,0,0,0,1.19.69,1.16,1.16,0,0,0,1.08-.74,1.69,1.69,0,0,0,0-1.49,1.24,1.24,0,0,0-2-.37A1.5,1.5,0,0,0,23.23,8Z"/><path class="cls-1" d="M18.93,3.82a3.71,3.71,0,0,1,2.34.76c.13.1.13.11,0,.24s-.35.49-.52.73-.1.1-.2,0A3.09,3.09,0,0,0,19.37,5a1.56,1.56,0,0,0-1,.09.6.6,0,0,0-.36.54.58.58,0,0,0,.34.57,3.94,3.94,0,0,0,1,.34A6.25,6.25,0,0,1,20.59,7a1.59,1.59,0,0,1,.93,1.16,1.87,1.87,0,0,1-1.42,2.27,3.72,3.72,0,0,1-2.66-.27,3.93,3.93,0,0,1-.92-.6c-.1-.09-.1-.11,0-.22l.58-.69c.1-.11.11-.11.23,0a3,3,0,0,0,1.35.7,2,2,0,0,0,1.09,0,.66.66,0,0,0,.5-.75A.46.46,0,0,0,20,8.17a2.05,2.05,0,0,0-.76-.32A9.81,9.81,0,0,1,18,7.48a2.23,2.23,0,0,1-.91-.57,1.68,1.68,0,0,1-.37-1.31,1.92,1.92,0,0,1,1.61-1.72A2.32,2.32,0,0,1,18.93,3.82Z"/><path class="cls-1" d="M30.13,5.38a2.6,2.6,0,1,1-.76.1A2.44,2.44,0,0,1,30.13,5.38ZM31.51,8a1.61,1.61,0,0,0-.13-.65A1.37,1.37,0,0,0,29.11,7a1.53,1.53,0,0,0-.33,1.35,1.38,1.38,0,0,0,2,1A1.4,1.4,0,0,0,31.51,8Z"/><path class="cls-1" d="M33.47,7.93V6.68c0-.07,0-.1-.09-.1H33a.1.1,0,0,1-.11-.11V5.59c0-.08,0-.12.11-.12h.39c.09,0,.12,0,.11-.11V4.29c0-.12,0-.14.14-.14h1c.12,0,.13,0,.13.14,0,.35,0,.71,0,1.06,0,.11,0,.13.13.13.34,0,.69,0,1,0,.12,0,.14,0,.14.13v.84c0,.13,0,.14-.14.14H34.83c-.07,0-.09,0-.09.09v2.2a.58.58,0,0,0,0,.26.4.4,0,0,0,.4.25,1.26,1.26,0,0,0,.66-.13c.13-.06.17,0,.17.12s0,.52,0,.78a.14.14,0,0,1-.09.15,2.08,2.08,0,0,1-1.69.12,1.12,1.12,0,0,1-.74-.94,4.4,4.4,0,0,1,0-.81Z"/><path class="cls-1" d="M37.82,8v2.34c0,.14,0,.14-.14.14h-1c-.09,0-.13,0-.13-.12V5.6c0-.09,0-.13.13-.13h1c.11,0,.13,0,.13.13Z"/><path class="cls-1" d="M37.19,4.87a.79.79,0,0,1-.79-.79.78.78,0,0,1,.78-.79.79.79,0,1,1,0,1.58Z"/><path class="cls-1" d="M46.88,5.46a.78.78,0,0,1,.77.81.79.79,0,0,1-1.57,0A.8.8,0,0,1,46.88,5.46Zm.68.78a.69.69,0,1,0-1.38,0,.69.69,0,1,0,1.38,0Z"/><path class="cls-1" d="M46.55,6.23V5.88s0-.07.05-.07a3,3,0,0,1,.42,0,.23.23,0,0,1,.21.18.24.24,0,0,1-.12.29s0,0,0,.08l.14.2s0,0,0,.06-.15,0-.19-.09l-.11-.15c0-.07-.11,0-.17,0s0,0,0,0a.29.29,0,0,0,0,.13c0,.07,0,.1-.09.1s-.08,0-.08-.09ZM46.88,6c-.19,0-.16,0-.17.14s0,0,0,.06,0,0,0,0a.81.81,0,0,0,.22,0,.12.12,0,0,0,.09-.12A.11.11,0,0,0,47,6Z"/></g></g></svg>