<svg xmlns="http://www.w3.org/2000/svg" viewBox="0 0 50 11.18"><defs><style>.cls-1{fill:#e2bfc2;}.cls-2{fill:#fefefe;}</style></defs><g id="Calque_2" data-name="Calque 2"><g id="Calque_4" data-name="Calque 4"><path class="cls-1" d="M8,11.18c-1.87,0-3.73,0-5.58-.22A2.1,2.1,0,0,1,.25,9,7.54,7.54,0,0,1,.13,8.2,25.61,25.61,0,0,1,.21,2.33,2.28,2.28,0,0,1,1.15.6,2.68,2.68,0,0,1,2.41.22a70.19,70.19,0,0,1,8.7-.16,17,17,0,0,1,3,.26,1.86,1.86,0,0,1,1.49,1.49,17,17,0,0,1,.32,4.1,20.23,20.23,0,0,1-.2,2.91A2.16,2.16,0,0,1,13.51,11C11.67,11.15,9.81,11.16,8,11.18Zm2.57-5.59-.6-.35C8.82,4.6,7.7,4,6.6,3.31c-.21-.12-.24-.06-.23.14,0,.45,0,.89,0,1.33v3c0,.23,0,.24.23.13l.54-.32Z"/><path class="cls-1" d="M42.25,4a1.78,1.78,0,0,1,1.56-.73,1.13,1.13,0,0,1,1,.73,4.69,4.69,0,0,1,.29,1.78A16,16,0,0,1,45,9a3,3,0,0,1-.18.6,1.43,1.43,0,0,1-2.42.41l-.2-.24-.06.13c-.13.5-.13.5-.66.5-.25,0-.59.11-.73-.05s0-.47,0-.71c0-3,0-5.93,0-8.89,0-.25.06-.33.31-.31s.65,0,1,0,.26,0,.26.25c0,1,0,2,0,3Zm0,3V8.78A.58.58,0,0,0,43.33,9a1.83,1.83,0,0,0,.16-.68c.07-.86,0-1.72,0-2.58a3,3,0,0,0-.14-1,.47.47,0,0,0-.77-.25.8.8,0,0,0-.36.69C42.26,5.78,42.25,6.39,42.25,7Z"/><path class="cls-1" d="M38.4,9.54a5.32,5.32,0,0,1-.4.52,1.6,1.6,0,0,1-1.61.37,1.09,1.09,0,0,1-.76-.82,2.89,2.89,0,0,1-.13-.88c0-1.71,0-3.42,0-5.13,0-.19,0-.25.24-.24a10.27,10.27,0,0,0,1.11,0c.22,0,.26.06.26.26,0,1.61,0,3.22,0,4.83a3.67,3.67,0,0,0,0,.46c0,.31.18.47.42.46a.66.66,0,0,0,.63-.53c0-.12,0-.25,0-.38,0-1.61,0-3.22,0-4.82,0-.21,0-.29.27-.28s.74,0,1.11,0c.17,0,.24,0,.23.22v6.59c0,.17,0,.23-.21.22h-.84c-.18,0-.23-.07-.25-.23S38.44,9.79,38.4,9.54Z"/><path class="cls-1" d="M30.34,9.6c-.13.06-.15.15-.21.22a1.61,1.61,0,0,1-1.72.64,1.18,1.18,0,0,1-.88-.94,3.31,3.31,0,0,1-.1-.83V3.62c0-.21.05-.27.25-.26a10.46,10.46,0,0,0,1.12,0c.19,0,.24.06.23.25V8.46a1.84,1.84,0,0,0,.06.62.38.38,0,0,0,.49.27.63.63,0,0,0,.55-.66c0-1.69,0-3.38,0-5.07,0-.2,0-.27.25-.26.38,0,.76,0,1.14,0,.15,0,.21,0,.21.19,0,2.22,0,4.43,0,6.65,0,.14,0,.2-.18.19h-.9c-.14,0-.19-.05-.21-.18S30.37,9.82,30.34,9.6Z"/><path class="cls-1" d="M26.64,6.91a9.16,9.16,0,0,1-.14,2,1.77,1.77,0,0,1-1.86,1.56c-1.42.07-2.1-.44-2.29-1.86a10.72,10.72,0,0,1,.08-3.83A2.14,2.14,0,0,1,25.7,3.53a1.94,1.94,0,0,1,.79,1.27A8.79,8.79,0,0,1,26.64,6.91ZM25,6.89c0-.51,0-1,0-1.52a2,2,0,0,0-.14-.74.43.43,0,0,0-.42-.29.41.41,0,0,0-.42.28,1.26,1.26,0,0,0-.12.45,29.31,29.31,0,0,0,0,3.63,1.7,1.7,0,0,0,.09.39.42.42,0,0,0,.4.31.43.43,0,0,0,.45-.28A1.9,1.9,0,0,0,25,8.73,14.13,14.13,0,0,0,25,6.89Z"/><path class="cls-1" d="M19.31,8.58c.21-1.23-.37-2.53-.72-3.86s-.67-2.46-1-3.69c-.06-.22,0-.26.2-.25.37,0,.74,0,1.11,0,.15,0,.23,0,.26.2.28,1.35.56,2.7.85,4.06v0c0,.06,0,.17.09.17s.09-.1.1-.17c.1-.45.18-.92.28-1.38.2-.9.4-1.79.59-2.7,0-.17.1-.24.28-.23a10.46,10.46,0,0,0,1.12,0c.2,0,.24,0,.18.24-.41,1.44-.81,2.89-1.22,4.33-.16.59-.33,1.18-.5,1.77a1.81,1.81,0,0,0,0,.4c0,.87,0,1.74,0,2.61,0,.22-.06.27-.27.26H19.51c-.16,0-.21-.05-.21-.21C19.31,9.72,19.31,9.25,19.31,8.58Z"/><path class="cls-1" d="M48.67,7.42H47.59c-.16,0-.23,0-.22.21a10.2,10.2,0,0,0,.06,1.24c.06.38.21.53.5.53s.49-.13.57-.5a3.47,3.47,0,0,0,.06-.45c0-.17,0-.25.23-.22s.65,0,1,.06c.12,0,.18,0,.19.18a1.76,1.76,0,0,1-1.79,2A2.13,2.13,0,0,1,46.49,10,1.82,1.82,0,0,1,46,8.94a11.58,11.58,0,0,1,0-4.15,1.79,1.79,0,0,1,2.1-1.55h.27a1.55,1.55,0,0,1,1.5,1.26A4.8,4.8,0,0,1,50,5.64c0,.52,0,1,0,1.57,0,.17,0,.21-.22.21ZM48.5,5.71a5.64,5.64,0,0,0-.08-.93c-.07-.33-.2-.45-.48-.46s-.43.12-.5.46a7.08,7.08,0,0,0-.06,1.3c0,.43-.06.37.37.37.24,0,.55.1.7,0S48.48,5.93,48.5,5.71Z"/><path class="cls-1" d="M32.87,6.24c0-1.3,0-2.61,0-3.91,0-.2-.06-.26-.26-.25-.36,0-.72,0-1.09,0-.16,0-.24,0-.23-.22a7.82,7.82,0,0,0,0-.84c0-.18,0-.24.23-.24h3.8c.65,0,.65,0,.65.64s0,.65-.66.65a5.42,5.42,0,0,1-.57,0c-.26,0-.34,0-.33.32,0,.59,0,1.19,0,1.79,0,2,0,3.94,0,5.91,0,.25-.07.31-.3.29a8.51,8.51,0,0,0-1,0c-.22,0-.26-.07-.26-.27C32.88,8.83,32.87,7.53,32.87,6.24Z"/><path class="cls-2" d="M10.53,5.59l-3.39,2-.54.32c-.18.11-.24.1-.23-.13v-3c0-.44,0-.88,0-1.33,0-.2,0-.26.23-.14C7.7,4,8.82,4.6,9.93,5.24Z"/></g></g></svg>