<svg xmlns="http://www.w3.org/2000/svg" viewBox="0 0 919.89 205.69"><defs><style>.cls-1{fill:#c06920;}.cls-2{fill:#fefefe;}</style></defs><g id="Calque_2" data-name="Calque 2"><g id="Calque_1-2" data-name="Calque 1"><path class="cls-1" d="M146.41,205.69c-34.28-.28-68.55-.57-102.7-4C20.49,199.31,9,189,4.52,166.17c-1-5-1.6-10.19-2.1-15.31C-1.08,114.8-1,78.79,3.9,42.85c1.73-12.78,5.92-24.2,17.3-31.78,7-4.69,15-6.28,23.14-7C97.63-.87,151-.59,204.43,1.14,223,1.75,241.75,1.9,260,6c14.66,3.27,24.07,12.75,27.44,27.26,5.75,24.8,6,50.14,5.87,75.42a380.25,380.25,0,0,1-3.74,53.71c-3.78,25.71-15.21,36.74-41,39.37C214.63,205.2,180.52,205.4,146.41,205.69Zm47.39-102.8c-4.3-2.51-7.73-4.52-11.17-6.51-20.44-11.82-40.91-23.58-61.28-35.51-3.76-2.2-4.31-1.07-4.23,2.67.19,8.14.06,16.29.06,24.44,0,18.13.1,36.26-.07,54.38,0,4.24,1.07,4.51,4.3,2.41s6.58-3.89,9.89-5.8Z"/><path class="cls-1" d="M777.35,73.11c7.86-9.23,16.71-14.46,28.67-13.55q13.54,1,18.76,13.45c4.42,10.46,5.14,21.59,5.41,32.75.48,19.93,1.43,39.88-2.13,59.67a54.71,54.71,0,0,1-3.21,11c-7.54,18.51-31.07,22.55-44.57,7.64-1.2-1.33-2.29-2.75-3.77-4.53-.43,1.08-.76,1.75-1,2.46-2.51,9.13-2.5,9.23-12.24,9.09-4.62-.06-10.75,2-13.41-.9-2.28-2.5-.78-8.54-.78-13,0-54.54,0-109.07-.12-163.61,0-4.57,1.12-6.05,5.72-5.74a153.73,153.73,0,0,0,18,0c3.67-.19,4.8.81,4.76,4.64-.21,18.61-.09,37.24-.09,55.86Zm0,55.57q0,16.47,0,32.93c0,5.12,2.74,8.34,8.12,9.71,5.19,1.32,9.47-.45,11.73-5,1.95-4,2.5-8.25,2.88-12.57,1.4-15.77.75-31.58.57-47.36-.08-6.44-.24-13-2.46-19.22-2.44-6.84-8.36-8.81-14.25-4.61a14.75,14.75,0,0,0-6.62,12.71C777.41,106.39,777.35,117.54,777.34,128.68Z"/><path class="cls-1" d="M706.5,175.48c-2.89,4-4.73,7.12-7.41,9.62-8.58,8.05-18.7,9.7-29.67,6.76-7.63-2-11.71-7.85-14-15a54,54,0,0,1-2.24-16.24c0-31.44,0-62.88-.08-94.31,0-3.51.93-4.59,4.45-4.45,6.81.26,13.65.33,20.46,0,3.91-.2,4.68,1.18,4.66,4.77-.13,29.61-.1,59.21-.07,88.82a72.4,72.4,0,0,0,.41,8.46c.7,5.84,3.35,8.62,7.85,8.55,5.49-.08,11.31-4.9,11.61-9.73.14-2.32,0-4.65,0-7,0-29.6.08-59.21-.08-88.82,0-3.84.8-5.27,4.91-5.06,6.8.36,13.64.23,20.46,0,3.14-.09,4.32.65,4.31,4.09q-.18,60.63,0,121.25c0,3-.69,4.16-3.86,4a147.83,147.83,0,0,0-15.47,0c-3.38.19-4.29-1.31-4.57-4.25C707.9,183.53,707.22,180.14,706.5,175.48Z"/><path class="cls-1" d="M558.14,176.67c-2.37,1-2.79,2.76-3.73,4-7.57,10.25-19.34,14.68-31.74,11.74-9.16-2.17-13.84-8.65-16.16-17.23a59,59,0,0,1-1.83-15.32c0-31.11.05-62.22-.11-93.33,0-3.76,1-4.89,4.74-4.73,6.81.3,13.65.27,20.46,0,3.56-.14,4.43,1,4.41,4.51-.14,29.78-.09,59.56-.08,89.34,0,3.82-.11,7.65,1.15,11.36,1.49,4.35,4.5,5.94,8.93,5,6.51-1.3,10.06-5.57,10.06-12.14,0-31.11.06-62.22-.09-93.33,0-3.65.75-5,4.63-4.81,7,.32,14,.2,21,0,2.68-.06,3.82.51,3.81,3.51q-.13,61.14,0,122.28c0,2.51-.6,3.6-3.32,3.52-5.49-.17-11-.19-16.47,0-2.59.1-3.51-.89-3.8-3.3C559.5,184.29,558.8,180.74,558.14,176.67Z"/><path class="cls-1" d="M490.07,127.06c.05,12.47.18,24.92-2.59,37.21-4.26,18.91-14.84,27.94-34.07,28.78-26.23,1.15-38.73-8.24-42.17-34.28-3.1-23.41-3.93-47.18,1.35-70.44,6-26.43,37.27-38.31,60.17-23.47,8.53,5.53,12.34,14.07,14.61,23.51C490.43,101.12,490.15,114.1,490.07,127.06Zm-29.76-.38c0-9.31.11-18.63-.05-27.94a34.94,34.94,0,0,0-2.59-13.64c-1.47-3.33-4-5.3-7.75-5.33s-6.23,1.94-7.7,5.31a23.87,23.87,0,0,0-2.06,8.18,557.25,557.25,0,0,0,0,66.78,28,28,0,0,0,1.72,7.25,7.8,7.8,0,0,0,7.43,5.66,7.92,7.92,0,0,0,8.26-5.21,31.59,31.59,0,0,0,1.92-7.18C461.3,149.31,460.14,138,460.31,126.68Z"/><path class="cls-1" d="M355.18,157.91c4-22.61-6.77-46.53-13.16-71.16-5.89-22.68-12.3-45.22-18.75-67.74-1.18-4.13-.14-4.77,3.67-4.63,6.82.27,13.65.2,20.47,0,2.75-.07,4.08.57,4.69,3.55,5.1,24.92,10.38,49.79,15.6,74.68a5.14,5.14,0,0,0,.16,1c.48,1.11-.19,3.09,1.66,3.15s1.49-1.89,1.73-3c1.77-8.46,3.35-17,5.18-25.4,3.58-16.57,7.38-33.09,10.85-49.68.68-3.24,1.85-4.4,5.21-4.27,6.82.27,13.66.29,20.47,0,3.72-.15,4.46.82,3.45,4.37-7.56,26.53-15,53.1-22.43,79.66q-4.59,16.31-9.21,32.62a27.09,27.09,0,0,0-.85,7.4c0,16-.13,31.94.12,47.9.06,4.07-1.23,5-5.05,4.88-6.65-.3-13.32-.24-20,0-3.09.1-4-.91-3.91-4C355.31,178.74,355.18,170.25,355.18,157.91Z"/><path class="cls-1" d="M895.44,136.46c-6.65,0-13.31.13-20-.06-2.92-.08-4.12.55-4,3.79.32,7.64-.13,15.32,1.09,22.9,1.1,6.9,3.85,9.59,9.3,9.74,5.78.16,8.91-2.5,10.39-9.22a46.37,46.37,0,0,0,1-8.39c.11-3,.76-4.46,4.33-4,5.94.7,12,.86,17.93,1.12,2.31.1,3.43.65,3.62,3.38,1.5,21.59-11.39,36.24-33.06,37.2-11.16.49-22-.24-30.77-8.58-5.66-5.42-8.63-12.36-9.84-19.78-4.12-25.44-4.8-51.08.24-76.37,4.16-20.83,17.22-29.7,38.58-28.6,1.67.09,3.33.21,5,.33C904.15,61,913.24,68.56,917,82.94a89.63,89.63,0,0,1,2.71,20.73c.21,9.65,0,19.3.2,29,.07,3.13-1,4-4,3.89C909.09,136.32,902.27,136.45,895.44,136.46ZM892.24,105c-.26-5.91-.16-11.58-1.36-17.14-1.28-5.93-3.75-8.24-8.84-8.32-5.39-.09-7.92,2.14-9.19,8.43-1.61,7.88-1.19,15.89-1.24,23.85s-1,6.87,6.86,6.81c4.43,0,10.22,2,12.94-.9S891.87,109.18,892.24,105Z"/><path class="cls-1" d="M604.82,114.77c0-24-.08-47.92.09-71.88,0-3.79-1.07-4.87-4.78-4.71-6.64.29-13.31-.06-20,.16-3.1.09-4.45-.56-4.23-4a130.72,130.72,0,0,0,0-15.46c-.19-3.46.77-4.47,4.36-4.45,23.3.17,46.61.08,69.91.07,12,0,12,0,12,11.8,0,12,0,12-12.19,12a96.32,96.32,0,0,1-10.48-.08c-4.7-.52-6.35.88-6.16,5.89.41,11,.14,22,.14,32.94,0,36.27-.1,72.55.13,108.82,0,4.58-1.29,5.63-5.55,5.37a151.76,151.76,0,0,0-18.47,0c-4.18.27-4.87-1.36-4.85-5.06C604.89,162.36,604.82,138.57,604.82,114.77Z"/><path class="cls-2" d="M193.8,102.89,131.3,139c-3.31,1.91-6.69,3.72-9.89,5.8s-4.34,1.83-4.3-2.41c.17-18.12.07-36.25.07-54.38,0-8.15.13-16.3-.06-24.44-.08-3.74.47-4.87,4.23-2.67,20.37,11.93,40.84,23.69,61.28,35.51C186.07,98.37,189.5,100.38,193.8,102.89Z"/></g></g></svg>