<svg xmlns="http://www.w3.org/2000/svg" viewBox="0 0 50 21.88"><defs><style>.cls-1{fill:#fff;}</style></defs><g id="Calque_2" data-name="Calque 2"><g id="Calque_1-2" data-name="Calque 1"><path class="cls-1" d="M7.7,4.81h.94l4.18,9.37H11.45l-1.24-2.76h-4L5.07,14.18H3.7Zm2,5.43L8.16,6.86l-1.4,3.38Z"/><path class="cls-1" d="M21,4.87h1.25v9.31H21V6.93l-2.87,3.61h-.24l-2.9-3.61v7.25H13.6V4.87h1.27L18,8.69Z"/><path class="cls-1" d="M27,14.18H23.89V4.87h2.44a4.19,4.19,0,0,1,1.8.31,2.3,2.3,0,0,1,1,.85,2.37,2.37,0,0,1,.34,1.26,2,2,0,0,1-1.43,2,2.83,2.83,0,0,1,1.63.85,2.18,2.18,0,0,1,.6,1.54,2.33,2.33,0,0,1-.36,1.28,2.8,2.8,0,0,1-1.08.91A4,4,0,0,1,27,14.18Zm-.67-8.13H25.22v2.8h.89a2.24,2.24,0,0,0,1.51-.4,1.35,1.35,0,0,0,.45-1.06C28.07,6.5,27.51,6.05,26.37,6.05Zm.1,4H25.22v3h1.31A4.41,4.41,0,0,0,28,12.83a1.39,1.39,0,0,0,.62-.53,1.38,1.38,0,0,0,.24-.78,1.32,1.32,0,0,0-.25-.78,1.47,1.47,0,0,0-.71-.52A4.29,4.29,0,0,0,26.47,10Z"/><path class="cls-1" d="M31.51,4.87h5.28V6.05H32.84V8.89h3.82v1.2H32.84V13h4.08v1.19H31.51Z"/><path class="cls-1" d="M38.65,14.18V4.87H41a3.34,3.34,0,0,1,2.24.7,2.34,2.34,0,0,1,.83,1.89,2.39,2.39,0,0,1-.41,1.41,2.87,2.87,0,0,1-1.09,1l2.36,4.35H43.34l-2.08-4H40v4ZM40.39,6H40V8.94h.5a3.89,3.89,0,0,0,1.39-.17,1.32,1.32,0,0,0,.59-.53,1.55,1.55,0,0,0,0-1.59,1.23,1.23,0,0,0-.66-.5A4.62,4.62,0,0,0,40.39,6Z"/><path class="cls-1" d="M22.58,16v1.41h-.39V16.37a.92.92,0,0,0-.08-.45.34.34,0,0,0-.31-.13.54.54,0,0,0-.22.05,1.69,1.69,0,0,0-.23.2v1.41H21V15.51h.38v.25a.87.87,0,0,1,.58-.29.65.65,0,0,1,.57.35.87.87,0,0,1,.64-.36.59.59,0,0,1,.47.21,1,1,0,0,1,.18.63v1.15h-.38V16.3a.56.56,0,0,0-.1-.37A.34.34,0,0,0,23,15.8.58.58,0,0,0,22.58,16Z"/><path class="cls-1" d="M25.31,15.5a1,1,0,0,1,.73.29,1,1,0,0,1,.3.72.92.92,0,0,1-.3.7,1.08,1.08,0,0,1-.75.27,1,1,0,0,1-.73-.28,1,1,0,0,1,0-1.41A1.05,1.05,0,0,1,25.31,15.5Zm0,.35a.62.62,0,0,0-.46.18.63.63,0,0,0-.18.46.59.59,0,0,0,.19.46.61.61,0,0,0,.46.17.6.6,0,0,0,.65-.63.63.63,0,0,0-.19-.46A.66.66,0,0,0,25.29,15.85Z"/><path class="cls-1" d="M28,15.51h.42l-.86,2h-.13l-.88-2H27l.53,1.19Z"/><path class="cls-1" d="M29,14.69a.23.23,0,0,1,.16.06.22.22,0,0,1,.07.17.21.21,0,0,1-.07.16.23.23,0,0,1-.16.06.21.21,0,0,1-.16-.07.2.2,0,0,1-.06-.15.23.23,0,0,1,.06-.16A.21.21,0,0,1,29,14.69Zm-.19.82h.38v1.94h-.38Z"/><path class="cls-1" d="M30.16,15.51v.24a.77.77,0,0,1,.58-.28.64.64,0,0,1,.34.09.6.6,0,0,1,.24.26,1.31,1.31,0,0,1,.08.52v1.11H31V16.34a.73.73,0,0,0-.09-.42.35.35,0,0,0-.31-.13.56.56,0,0,0-.46.27v1.39h-.39V15.51Z"/><path class="cls-1" d="M31.9,16.18a.59.59,0,0,1,.22-.49,1,1,0,0,1,.62-.18h.8v.3h-.39a.59.59,0,0,1,.16.21.48.48,0,0,1,0,.22.6.6,0,0,1-.08.29.63.63,0,0,1-.23.23,1.41,1.41,0,0,1-.44.12c-.15,0-.22.08-.22.15a.12.12,0,0,0,.08.11,1.11,1.11,0,0,0,.29.09,3.49,3.49,0,0,1,.46.13.76.76,0,0,1,.19.12.5.5,0,0,1,.14.35.51.51,0,0,1-.25.45,1.15,1.15,0,0,1-.66.16,1.12,1.12,0,0,1-.66-.17.49.49,0,0,1-.25-.44c0-.26.16-.43.49-.51-.13-.08-.19-.16-.19-.25a.19.19,0,0,1,.08-.16.47.47,0,0,1,.22-.12A.63.63,0,0,1,31.9,16.18Zm.63,1.36a.61.61,0,0,0-.32.08.26.26,0,0,0-.12.21q0,.3.54.3a.82.82,0,0,0,.39-.07.22.22,0,0,0,.14-.21.25.25,0,0,0-.18-.22A1,1,0,0,0,32.53,17.54Zm.09-1.7a.37.37,0,0,0-.27.11.34.34,0,0,0,0,.5.41.41,0,0,0,.54,0A.31.31,0,0,0,33,16.2a.31.31,0,0,0-.11-.26A.36.36,0,0,0,32.62,15.84Z"/><path class="cls-1" d="M36.75,16v1.41h-.39V16.37a.8.8,0,0,0-.09-.45.31.31,0,0,0-.3-.13.54.54,0,0,0-.22.05,1.25,1.25,0,0,0-.23.2v1.41h-.38V15.51h.38v.25a.87.87,0,0,1,.58-.29.65.65,0,0,1,.57.35.85.85,0,0,1,.64-.36.59.59,0,0,1,.47.21,1,1,0,0,1,.18.63v1.15h-.38V16.3a.63.63,0,0,0-.1-.37.34.34,0,0,0-.29-.13A.58.58,0,0,0,36.75,16Z"/><path class="cls-1" d="M39.78,17.45V17.2a.83.83,0,0,1-.28.21.7.7,0,0,1-.31.07.67.67,0,0,1-.34-.09.56.56,0,0,1-.23-.25,1.12,1.12,0,0,1-.08-.52V15.51h.38v1.1A.74.74,0,0,0,39,17a.36.36,0,0,0,.31.12.54.54,0,0,0,.46-.27V15.51h.39v1.94Z"/><path class="cls-1" d="M40.67,17.31V16.9a2.68,2.68,0,0,0,.33.18.75.75,0,0,0,.29.07.37.37,0,0,0,.21-.06.17.17,0,0,0,.08-.14.24.24,0,0,0,0-.14,1.2,1.2,0,0,0-.25-.16,1.89,1.89,0,0,1-.48-.35.51.51,0,0,1-.12-.32.45.45,0,0,1,.18-.37.69.69,0,0,1,.45-.14,1.18,1.18,0,0,1,.58.16V16a1.15,1.15,0,0,0-.56-.21.35.35,0,0,0-.18,0,.14.14,0,0,0-.07.13.17.17,0,0,0,.06.12.83.83,0,0,0,.22.15l.14.08c.32.18.49.39.49.61a.49.49,0,0,1-.19.39.76.76,0,0,1-.48.15,1.42,1.42,0,0,1-.31,0A2.47,2.47,0,0,1,40.67,17.31Z"/><path class="cls-1" d="M42.68,14.69a.21.21,0,0,1,.23.23.25.25,0,0,1-.06.16.25.25,0,0,1-.17.06.19.19,0,0,1-.15-.07.18.18,0,0,1-.07-.15.2.2,0,0,1,.07-.16A.19.19,0,0,1,42.68,14.69Zm-.19.82h.39v1.94h-.39Z"/><path class="cls-1" d="M45,17v.38a1.67,1.67,0,0,1-.57.1,1,1,0,0,1-.73-.27,1,1,0,0,1-.27-.72,1,1,0,0,1,.27-.74.88.88,0,0,1,.69-.28,1.12,1.12,0,0,1,.27,0l.3.1V16a1.08,1.08,0,0,0-.55-.18.54.54,0,0,0-.42.18.68.68,0,0,0-.17.47A.64.64,0,0,0,44,17a.65.65,0,0,0,.49.17A1.34,1.34,0,0,0,45,17Z"/><path class="cls-1" d="M49.67.33V21.54H.33V.33H49.67M50,0H0V21.88H50V0Z"/></g></g></svg>