<svg xmlns="http://www.w3.org/2000/svg" viewBox="0 0 24 24"><defs><style>.cls-1{fill:#fff;}.cls-2{fill:#8e8079;}</style></defs><g id="Calque_2" data-name="Calque 2"><g id="Calque_1-2" data-name="Calque 1"><path class="cls-1" d="M24,5.58a6.42,6.42,0,0,0-.17-1.51,4.68,4.68,0,0,0-.48-1.29l0-.07a4.61,4.61,0,0,0-1-1.27A4.88,4.88,0,0,0,20.3.3,7.2,7.2,0,0,0,19.09.06c-.5,0-1,0-1.53,0H7.46C6.64,0,5.83,0,5,.05A6.1,6.1,0,0,0,3.9.24,5.1,5.1,0,0,0,1.25,1.9a5.06,5.06,0,0,0-1,1.85A7.28,7.28,0,0,0,0,5.29c0,.94,0,1.89,0,2.83V12c0,1.71,0,3.41,0,5.12,0,.58,0,1.16,0,1.74A6.48,6.48,0,0,0,.22,20v0a5.24,5.24,0,0,0,.54,1.32,5,5,0,0,0,2.42,2.15A6.94,6.94,0,0,0,5.69,24c.63,0,1.26,0,1.9,0H15.9c1.08,0,2.16,0,3.24-.08a5.52,5.52,0,0,0,1.34-.29,3.32,3.32,0,0,0,.62-.24,5,5,0,0,0,1.81-1.51,4.91,4.91,0,0,0,.82-1.65c0-.05,0-.1,0-.15a7.53,7.53,0,0,0,.22-2C24,13.91,24,9.75,24,5.58Z"/><path class="cls-2" d="M7.3,3.05A7.06,7.06,0,0,0,5.22,6.29c-.63,2.21.27,4.18,1.48,6.92a22,22,0,0,0,2.62,4.43A11.29,11.29,0,0,0,12.58,21a6.91,6.91,0,0,0,2.3.9,5,5,0,0,0,2.85-.15l.29-.12-3.33-4.5a.91.91,0,0,1-.41.28,1.24,1.24,0,0,1-.94-.21c-1.22-.74-3.13-3.92-4-6.15A6.44,6.44,0,0,1,9,9.93c-.19-.79-.14-1-.07-1.2a1.22,1.22,0,0,1,.54-.56Z"/><path class="cls-2" d="M9.5,2.39c.29.16.46.51.8,1.19l.47,1.09.27.67a7,7,0,0,1,.29.83c.22.81.13,1.13,0,1.31a.3.3,0,0,1,0,.08C11,8.1,10.08,8,9.9,8L7.7,2.8a1.38,1.38,0,0,1,.63-.49A1.49,1.49,0,0,1,9.5,2.39Z"/><path class="cls-2" d="M16.64,16c.33.1.57.39,1.06,1l.71.95c.22.29.31.43.42.59.22.32.34.49.48.74a1.79,1.79,0,0,1,.34,1.26.29.29,0,0,1,0,.09c-.21.6-1.11.75-1.28.78L15,16.78a1.37,1.37,0,0,1,.5-.63A1.49,1.49,0,0,1,16.64,16Z"/></g></g></svg>