<svg xmlns="http://www.w3.org/2000/svg" viewBox="0 0 200 87.5"><defs><style>.cls-1{fill:#fff;opacity:0.48;}.cls-2{fill:#8d8079;}</style></defs><g id="Calque_2" data-name="Calque 2"><g id="Calque_1-2" data-name="Calque 1"><rect class="cls-1" x="1.32" width="197.35" height="87.5"/><path class="cls-2" d="M30.8,19.25h3.75L51.26,56.74H45.8l-5-11.05H24.93L20.27,56.74H14.79Zm7.84,21.69-6-13.5-5.57,13.5Z"/><path class="cls-2" d="M84.16,19.46h5V56.74H83.79v-29L72.33,42.14h-1L59.75,27.73v29H54.42V19.46h5L71.85,34.77Z"/><path class="cls-2" d="M108.16,56.74H95.54V19.46h9.77a17.07,17.07,0,0,1,7.2,1.24,8.93,8.93,0,0,1,5.31,8.45q0,5.49-5.68,7.87a11.6,11.6,0,0,1,6.5,3.36,8.81,8.81,0,0,1,2.41,6.19,9.12,9.12,0,0,1-1.47,5.1,10.65,10.65,0,0,1-4.31,3.65A15.9,15.9,0,0,1,108.16,56.74Zm-2.69-32.53h-4.59V35.42h3.55c2.84,0,4.87-.54,6.07-1.63a5.41,5.41,0,0,0,1.8-4.21Q112.3,24.21,105.47,24.21Zm.4,16h-5V52h5.26a17.2,17.2,0,0,0,5.93-.68,5.69,5.69,0,0,0,2.51-2.12,5.59,5.59,0,0,0,1-3.1,5.32,5.32,0,0,0-1-3.12,6,6,0,0,0-2.84-2.11A17.92,17.92,0,0,0,105.87,40.17Z"/><path class="cls-2" d="M126,19.46h21.13v4.75H131.37V35.58h15.26v4.77H131.37V51.93h16.3v4.75H126Z"/><path class="cls-2" d="M154.61,56.74V19.46h9.33c3.77,0,6.77.94,9,2.81a9.36,9.36,0,0,1,3.32,7.57,9.74,9.74,0,0,1-1.62,5.63,11.76,11.76,0,0,1-4.36,3.87l9.44,17.4h-6.35l-8.29-16.23h-5.12V56.74ZM161.54,24h-1.6V35.77h2a15,15,0,0,0,5.56-.7A5.19,5.19,0,0,0,169.88,33a6.1,6.1,0,0,0,.84-3.19,5.73,5.73,0,0,0-.93-3.19,5,5,0,0,0-2.63-2A19,19,0,0,0,161.54,24Z"/><path class="cls-2" d="M90.31,64.16V69.8H88.77V65.47a3.39,3.39,0,0,0-.35-1.8,1.35,1.35,0,0,0-1.21-.51,1.77,1.77,0,0,0-.88.22,3.88,3.88,0,0,0-.92.78V69.8H83.88V62h1.53v1a3.37,3.37,0,0,1,2.3-1.17A2.51,2.51,0,0,1,90,63.28a3.45,3.45,0,0,1,2.58-1.42,2.36,2.36,0,0,1,1.86.83,3.7,3.7,0,0,1,.73,2.52V69.8H93.63V65.19a2.42,2.42,0,0,0-.39-1.48,1.35,1.35,0,0,0-1.14-.52A2.35,2.35,0,0,0,90.31,64.16Z"/><path class="cls-2" d="M101.23,62a4,4,0,0,1,2.94,1.14A3.85,3.85,0,0,1,105.35,66a3.67,3.67,0,0,1-1.19,2.79,4.21,4.21,0,0,1-3,1.12,4.09,4.09,0,0,1-2.93-1.13,4,4,0,0,1,0-5.66A4.12,4.12,0,0,1,101.23,62Zm-.09,1.39a2.46,2.46,0,0,0-1.82.72A2.56,2.56,0,0,0,98.61,66a2.43,2.43,0,0,0,.73,1.82,2.59,2.59,0,0,0,1.87.71,2.51,2.51,0,0,0,1.85-.72,2.45,2.45,0,0,0,.73-1.82,2.47,2.47,0,0,0-.76-1.84A2.62,2.62,0,0,0,101.14,63.4Z"/><path class="cls-2" d="M112,62h1.67l-3.43,7.91h-.52L106.24,62h1.68l2.1,4.78Z"/><path class="cls-2" d="M115.88,58.76a.92.92,0,0,1,.65.26.85.85,0,0,1,.27.64.87.87,0,0,1-.27.64.89.89,0,0,1-.65.27.86.86,0,0,1-.63-.27.88.88,0,0,1,0-1.27A.86.86,0,0,1,115.88,58.76ZM115.12,62h1.53V69.8h-1.53Z"/><path class="cls-2" d="M120.64,62v1A3.07,3.07,0,0,1,123,61.88a2.59,2.59,0,0,1,1.35.37,2.48,2.48,0,0,1,1,1,4.89,4.89,0,0,1,.33,2.08V69.8h-1.54V65.37a3,3,0,0,0-.36-1.7,1.41,1.41,0,0,0-1.22-.51,2.21,2.21,0,0,0-1.85,1.09V69.8h-1.57V62Z"/><path class="cls-2" d="M127.58,64.71a2.36,2.36,0,0,1,.91-2A3.87,3.87,0,0,1,131,62h3.2v1.2H132.6a3.38,3.38,0,0,1,.63.84,2.05,2.05,0,0,1,.18.87,2.34,2.34,0,0,1-.35,1.2,2.4,2.4,0,0,1-.89.9,5.53,5.53,0,0,1-1.79.5c-.57.08-.86.28-.86.6a.5.5,0,0,0,.32.44,5.87,5.87,0,0,0,1.18.36,13.18,13.18,0,0,1,1.84.49,2.45,2.45,0,0,1,.74.51,1.88,1.88,0,0,1,.55,1.4,2,2,0,0,1-1,1.76,4.66,4.66,0,0,1-2.63.66,4.74,4.74,0,0,1-2.66-.66,2,2,0,0,1-1-1.78q0-1.57,2-2c-.52-.33-.78-.66-.78-1a.88.88,0,0,1,.34-.68,2.12,2.12,0,0,1,.9-.45A2.54,2.54,0,0,1,127.58,64.71Zm2.53,5.45a2.27,2.27,0,0,0-1.28.33,1,1,0,0,0-.49.85q0,1.2,2.16,1.2a3.46,3.46,0,0,0,1.59-.3.94.94,0,0,0,.56-.85c0-.36-.24-.66-.71-.88A4.17,4.17,0,0,0,130.11,70.16Zm.36-6.8a1.5,1.5,0,0,0-1.07.42,1.38,1.38,0,0,0-.43,1,1.27,1.27,0,0,0,.43,1,1.55,1.55,0,0,0,1.09.39,1.52,1.52,0,0,0,1.08-.4,1.3,1.3,0,0,0,.44-1,1.33,1.33,0,0,0-.44-1A1.56,1.56,0,0,0,130.47,63.36Z"/><path class="cls-2" d="M147,64.16V69.8h-1.55V65.47a3.41,3.41,0,0,0-.34-1.8,1.37,1.37,0,0,0-1.21-.51,1.74,1.74,0,0,0-.88.22,3.69,3.69,0,0,0-.92.78V69.8h-1.54V62h1.54v1a3.35,3.35,0,0,1,2.3-1.17,2.52,2.52,0,0,1,2.29,1.4,3.45,3.45,0,0,1,2.57-1.42,2.36,2.36,0,0,1,1.87.83,3.75,3.75,0,0,1,.73,2.52V69.8h-1.54V65.19a2.35,2.35,0,0,0-.4-1.48,1.33,1.33,0,0,0-1.14-.52A2.33,2.33,0,0,0,147,64.16Z"/><path class="cls-2" d="M159.13,69.8v-1a3.47,3.47,0,0,1-1.11.84,2.91,2.91,0,0,1-1.26.3,2.7,2.7,0,0,1-1.36-.37,2.42,2.42,0,0,1-.93-1,5,5,0,0,1-.32-2.09V62h1.54v4.43a3,3,0,0,0,.35,1.71,1.42,1.42,0,0,0,1.23.48,2.25,2.25,0,0,0,1.86-1.07V62h1.54V69.8Z"/><path class="cls-2" d="M162.68,69.24V67.59a7.31,7.31,0,0,0,1.33.74,3.28,3.28,0,0,0,1.15.28,1.39,1.39,0,0,0,.82-.24.68.68,0,0,0,.35-.56.81.81,0,0,0-.22-.57,6.06,6.06,0,0,0-1-.64,6.93,6.93,0,0,1-1.95-1.42,2,2,0,0,1-.46-1.28,1.79,1.79,0,0,1,.7-1.46,2.72,2.72,0,0,1,1.79-.56,4.92,4.92,0,0,1,2.34.64V64a4.7,4.7,0,0,0-2.24-.83,1.22,1.22,0,0,0-.72.19.58.58,0,0,0-.27.5.71.71,0,0,0,.25.52,4.07,4.07,0,0,0,.87.59l.55.31c1.3.74,1.94,1.55,1.94,2.44a2,2,0,0,1-.74,1.56,2.94,2.94,0,0,1-1.93.62,4.6,4.6,0,0,1-1.23-.15A8.2,8.2,0,0,1,162.68,69.24Z"/><path class="cls-2" d="M170.74,58.76a.92.92,0,0,1,.65.26.85.85,0,0,1,.27.64.87.87,0,0,1-.27.64.89.89,0,0,1-.65.27.86.86,0,0,1-.63-.27.88.88,0,0,1,0-1.27A.86.86,0,0,1,170.74,58.76ZM170,62h1.53V69.8H170Z"/><path class="cls-2" d="M179.79,68V69.5a6.43,6.43,0,0,1-2.26.44,3.94,3.94,0,0,1-2.91-1.09A3.87,3.87,0,0,1,173.53,66a4.11,4.11,0,0,1,1.06-3,3.62,3.62,0,0,1,2.78-1.12,4.4,4.4,0,0,1,1.07.11,7.35,7.35,0,0,1,1.18.43v1.63a4.14,4.14,0,0,0-2.16-.74,2.25,2.25,0,0,0-1.71.73,2.69,2.69,0,0,0-.67,1.86,2.54,2.54,0,0,0,.73,1.9,2.7,2.7,0,0,0,1.94.7A5,5,0,0,0,179.79,68Z"/><path class="cls-2" d="M198.68,1.32V86.18H1.32V1.32H198.68M200,0H0V87.5H200V0Z"/></g></g></svg>