<svg xmlns="http://www.w3.org/2000/svg" viewBox="0 0 40 40"><defs><style>.cls-1{fill:#8d8079;}.cls-2{fill:#fff;}</style></defs><g id="Calque_2" data-name="Calque 2"><g id="Calque_1-2" data-name="Calque 1"><circle class="cls-1" cx="20" cy="20" r="20"/><path class="cls-2" d="M9.62,16.33h.56L12.69,22h-.82l-.75-1.66H8.74L8,22H7.22Zm1.18,3.25-.91-2-.83,2Z"/><path class="cls-2" d="M17.62,16.36h.75V22h-.8V17.6l-1.72,2.16H15.7L14,17.6V22h-.8V16.36h.76l1.86,2.29Z"/><path class="cls-2" d="M21.22,22H19.33V16.36H20.8a2.63,2.63,0,0,1,1.08.18,1.43,1.43,0,0,1,.59.52,1.32,1.32,0,0,1,.2.75A1.21,1.21,0,0,1,21.82,19a1.84,1.84,0,0,1,1,.5,1.32,1.32,0,0,1,.36.93,1.44,1.44,0,0,1-.22.77,1.7,1.7,0,0,1-.65.55A2.4,2.4,0,0,1,21.22,22Zm-.4-4.88h-.69v1.68h.53a1.36,1.36,0,0,0,.91-.24.84.84,0,0,0,.27-.64C21.84,17.34,21.5,17.07,20.82,17.07Zm.06,2.39h-.75v1.78h.79a2.47,2.47,0,0,0,.89-.11.82.82,0,0,0,.38-.31.89.89,0,0,0,.14-.47.8.8,0,0,0-.15-.47.87.87,0,0,0-.43-.31A2.58,2.58,0,0,0,20.88,19.46Z"/><path class="cls-2" d="M23.9,16.36h3.17v.71H24.71v1.7H27v.72H24.71v1.74h2.44v.71H23.9Z"/><path class="cls-2" d="M28.19,22V16.36h1.4a2,2,0,0,1,1.35.42,1.54,1.54,0,0,1,.25,2,1.76,1.76,0,0,1-.65.58L32,22H31l-1.24-2.44H29V22Zm1-4.91H29V18.8h.31a2.26,2.26,0,0,0,.83-.1.78.78,0,0,0,.35-.32.85.85,0,0,0,.13-.47.87.87,0,0,0-.14-.48.71.71,0,0,0-.4-.3A2.78,2.78,0,0,0,29.23,17Z"/><path class="cls-2" d="M18.55,23.06v.85h-.23v-.65a.45.45,0,0,0-.06-.27.19.19,0,0,0-.18-.08.28.28,0,0,0-.13,0l-.14.12v.85h-.23V22.74h.23v.15a.52.52,0,0,1,.35-.17.38.38,0,0,1,.34.21.51.51,0,0,1,.39-.21.38.38,0,0,1,.28.12.57.57,0,0,1,.11.38v.69H19v-.69A.39.39,0,0,0,19,23a.21.21,0,0,0-.18-.07A.33.33,0,0,0,18.55,23.06Z"/><path class="cls-2" d="M20.18,22.74a.64.64,0,0,1,.45.17.61.61,0,0,1,.17.43.54.54,0,0,1-.18.42.64.64,0,0,1-.45.17.6.6,0,0,1-.43-.17.56.56,0,0,1-.18-.42.57.57,0,0,1,.18-.43A.62.62,0,0,1,20.18,22.74Zm0,.21a.33.33,0,0,0-.27.11.37.37,0,0,0-.11.27.39.39,0,0,0,.11.28.44.44,0,0,0,.56,0,.41.41,0,0,0,.11-.28.37.37,0,0,0-.11-.27A.38.38,0,0,0,20.17,23Z"/><path class="cls-2" d="M21.81,22.74h.25l-.52,1.19h-.08l-.52-1.19h.25l.31.72Z"/><path class="cls-2" d="M22.38,22.25a.14.14,0,0,1,.14.14.11.11,0,0,1,0,.09.13.13,0,0,1-.1,0,.14.14,0,0,1-.13-.13.13.13,0,0,1,0-.1A.11.11,0,0,1,22.38,22.25Zm-.11.49h.23v1.17h-.23Z"/><path class="cls-2" d="M23.1,22.74v.15a.47.47,0,0,1,.35-.17.36.36,0,0,1,.2.06.29.29,0,0,1,.14.15.8.8,0,0,1,.05.31v.67h-.23v-.67a.49.49,0,0,0-.05-.25.23.23,0,0,0-.19-.08.33.33,0,0,0-.27.16v.84h-.24V22.74Z"/><path class="cls-2" d="M24.14,23.14a.35.35,0,0,1,.13-.29.61.61,0,0,1,.38-.11h.48v.18h-.24a.31.31,0,0,1,.09.13.28.28,0,0,1,0,.13.41.41,0,0,1-.05.18.4.4,0,0,1-.13.13,1,1,0,0,1-.27.08c-.09,0-.13,0-.13.09a.06.06,0,0,0,.05.06l.17.06a1.51,1.51,0,0,1,.28.07.28.28,0,0,1,.11.08.25.25,0,0,1,.08.21.3.3,0,0,1-.14.26.85.85,0,0,1-.8,0,.29.29,0,0,1-.15-.26c0-.16.1-.26.3-.31q-.12-.07-.12-.15a.14.14,0,0,1,.05-.1.4.4,0,0,1,.13-.07A.37.37,0,0,1,24.14,23.14Zm.38.82a.33.33,0,0,0-.19.05.16.16,0,0,0-.08.13q0,.18.33.18a.46.46,0,0,0,.23-.05.14.14,0,0,0,.09-.12c0-.06,0-.1-.11-.14A.68.68,0,0,0,24.52,24Zm.05-1a.2.2,0,0,0-.16.07.2.2,0,0,0,0,.3.23.23,0,0,0,.16.06.22.22,0,0,0,.17-.07.22.22,0,0,0,0-.3A.25.25,0,0,0,24.57,22.94Z"/><path class="cls-2" d="M27.05,23.06v.85h-.23v-.65a.45.45,0,0,0-.06-.27.19.19,0,0,0-.18-.08.31.31,0,0,0-.13,0l-.14.12v.85h-.23V22.74h.23v.15a.55.55,0,0,1,.35-.17.37.37,0,0,1,.34.21.51.51,0,0,1,.39-.21.38.38,0,0,1,.28.12.57.57,0,0,1,.11.38v.69h-.23v-.69a.39.39,0,0,0-.06-.23.21.21,0,0,0-.17-.07A.33.33,0,0,0,27.05,23.06Z"/><path class="cls-2" d="M28.87,23.91v-.15a.52.52,0,0,1-.17.12.41.41,0,0,1-.19.05.36.36,0,0,1-.2-.06.29.29,0,0,1-.14-.15.73.73,0,0,1-.05-.31v-.67h.23v.67a.4.4,0,0,0,.06.25.19.19,0,0,0,.18.08.35.35,0,0,0,.28-.17v-.83h.23v1.17Z"/><path class="cls-2" d="M29.4,23.82v-.24l.2.11.17,0a.2.2,0,0,0,.13,0,.1.1,0,0,0,.05-.08.14.14,0,0,0,0-.09l-.15-.09a1,1,0,0,1-.29-.22.26.26,0,0,1-.07-.19.27.27,0,0,1,.1-.22.46.46,0,0,1,.27-.08.67.67,0,0,1,.35.1V23a.67.67,0,0,0-.33-.12.18.18,0,0,0-.11,0,.08.08,0,0,0,0,.07.09.09,0,0,0,0,.08l.13.09.08,0c.19.11.29.23.29.36a.32.32,0,0,1-.11.24.46.46,0,0,1-.29.09l-.18,0Z"/><path class="cls-2" d="M30.61,22.25a.14.14,0,0,1,.14.14.11.11,0,0,1,0,.09.13.13,0,0,1-.1,0,.14.14,0,0,1-.13-.13.13.13,0,0,1,0-.1A.11.11,0,0,1,30.61,22.25Zm-.11.49h.23v1.17H30.5Z"/><path class="cls-2" d="M32,23.64v.22a.86.86,0,0,1-.34.07.64.64,0,0,1-.44-.16.69.69,0,0,1,0-.88.5.5,0,0,1,.41-.17.47.47,0,0,1,.17,0l.17.06v.25a.56.56,0,0,0-.32-.12.35.35,0,0,0-.26.11.45.45,0,0,0-.1.28.4.4,0,0,0,.11.29.39.39,0,0,0,.29.1A.8.8,0,0,0,32,23.64Z"/><path class="cls-2" d="M34.8,13.64V26.36H5.2V13.64H34.8m.2-.2H5V26.56H35V13.44Z"/></g></g></svg>