<svg xmlns="http://www.w3.org/2000/svg" viewBox="0 0 24 24"><defs><style>.cls-1{fill:#6c1d55;}.cls-2{fill:#fff;}</style></defs><g id="Calque_2" data-name="Calque 2"><g id="Calque_1-2" data-name="Calque 1"><path class="cls-1" d="M24,5.58a6.42,6.42,0,0,0-.17-1.51,4.68,4.68,0,0,0-.48-1.29l0-.07a4.61,4.61,0,0,0-1-1.27A4.88,4.88,0,0,0,20.3.3,7.2,7.2,0,0,0,19.09.06c-.5,0-1,0-1.53,0H7.46C6.64,0,5.83,0,5,.05A6.1,6.1,0,0,0,3.9.24,5.1,5.1,0,0,0,1.25,1.9a5.06,5.06,0,0,0-1,1.85A7.28,7.28,0,0,0,0,5.29c0,.94,0,1.89,0,2.83V12c0,1.71,0,3.41,0,5.12,0,.58,0,1.16,0,1.74A6.48,6.48,0,0,0,.22,20v0a5.24,5.24,0,0,0,.54,1.32,5,5,0,0,0,2.42,2.15A6.94,6.94,0,0,0,5.69,24c.63,0,1.26,0,1.9,0H15.9c1.08,0,2.16,0,3.24-.08a5.52,5.52,0,0,0,1.34-.29,3.32,3.32,0,0,0,.62-.24,5,5,0,0,0,1.81-1.51,4.91,4.91,0,0,0,.82-1.65c0-.05,0-.1,0-.15a7.53,7.53,0,0,0,.22-2C24,13.91,24,9.75,24,5.58Z"/><path class="cls-2" d="M6.14,9.93h.32L7.87,13.1H7.41L7,12.16H5.64l-.39.94H4.79Zm.66,1.83-.5-1.14-.48,1.14Z"/><path class="cls-2" d="M10.66,9.94h.42V13.1h-.45V10.64l-1,1.22H9.57l-1-1.22V13.1H8.14V9.94h.43l1,1.3Z"/><path class="cls-2" d="M12.69,13.1H11.62V9.94h.83a1.45,1.45,0,0,1,.61.11.73.73,0,0,1,.33.29.74.74,0,0,1,.12.42.69.69,0,0,1-.48.67,1,1,0,0,1,.55.28.81.81,0,0,1,.08,1,.88.88,0,0,1-.37.31A1.34,1.34,0,0,1,12.69,13.1Zm-.23-2.75h-.39v.94h.3a.78.78,0,0,0,.52-.13A.48.48,0,0,0,13,10.8C13,10.5,12.85,10.35,12.46,10.35Zm0,1.35h-.43v1h.45a1.37,1.37,0,0,0,.5-.06.46.46,0,0,0,.21-.18.42.42,0,0,0,.08-.26.43.43,0,0,0-.08-.27.46.46,0,0,0-.24-.17A1.46,1.46,0,0,0,12.5,11.7Z"/><path class="cls-2" d="M14.2,9.94H16v.41H14.66v1H16v.4H14.66v1H16v.4H14.2Z"/><path class="cls-2" d="M16.62,13.1V9.94h.79a1.12,1.12,0,0,1,.76.24.79.79,0,0,1,.29.64.83.83,0,0,1-.14.48,1.09,1.09,0,0,1-.37.33l.8,1.47h-.54l-.7-1.37h-.43V13.1Zm.59-2.77h-.13v1h.17a1.6,1.6,0,0,0,.47-.05.49.49,0,0,0,.2-.18.6.6,0,0,0,.07-.27.5.5,0,0,0-.08-.27.41.41,0,0,0-.22-.17A1.45,1.45,0,0,0,17.21,10.33Z"/><path class="cls-2" d="M11.18,13.73v.48h-.13v-.37a.28.28,0,0,0,0-.15.11.11,0,0,0-.1,0l-.08,0-.08.07v.48h-.13v-.66h.13v.08a.34.34,0,0,1,.2-.1.21.21,0,0,1,.19.12.31.31,0,0,1,.22-.12.22.22,0,0,1,.16.07.34.34,0,0,1,.06.22v.39h-.13v-.39a.23.23,0,0,0,0-.13.13.13,0,0,0-.1,0A.19.19,0,0,0,11.18,13.73Z"/><path class="cls-2" d="M12.1,13.55a.35.35,0,0,1,.25.09.33.33,0,0,1,.1.25.29.29,0,0,1-.1.23.36.36,0,0,1-.5,0,.3.3,0,0,1-.1-.24.33.33,0,0,1,.1-.24A.37.37,0,0,1,12.1,13.55Zm0,.11a.21.21,0,0,0-.16.06.25.25,0,0,0-.06.16.23.23,0,0,0,.06.16.25.25,0,0,0,.16.06.19.19,0,0,0,.16-.07.2.2,0,0,0,.06-.15.21.21,0,0,0-.22-.22Z"/><path class="cls-2" d="M13,13.55h.14l-.29.67h0l-.3-.67h.14l.18.4Z"/><path class="cls-2" d="M13.34,13.27l.06,0a.14.14,0,0,1,0,.06.08.08,0,0,1,0,.05s0,0-.06,0a.06.06,0,0,1-.05,0,.08.08,0,0,1,0-.05.14.14,0,0,1,0-.06Zm-.06.28h.13v.66h-.13Z"/><path class="cls-2" d="M13.75,13.55v.08a.28.28,0,0,1,.2-.1.25.25,0,0,1,.11,0,.2.2,0,0,1,.08.08.42.42,0,0,1,0,.18v.38H14v-.38a.24.24,0,0,0,0-.14.13.13,0,0,0-.11,0,.17.17,0,0,0-.15.1v.47h-.14v-.66Z"/><path class="cls-2" d="M14.34,13.77a.19.19,0,0,1,.07-.16.33.33,0,0,1,.21-.06h.27v.1h-.13a.23.23,0,0,1,.05.07.19.19,0,0,1,0,.07.23.23,0,0,1,0,.11.27.27,0,0,1-.08.07.39.39,0,0,1-.15,0c-.05,0-.07,0-.07.05s0,0,0,0l.1,0,.15,0a.15.15,0,0,1,.06.05.13.13,0,0,1,.05.12.19.19,0,0,1-.08.15.48.48,0,0,1-.22,0,.39.39,0,0,1-.23-.06.15.15,0,0,1-.08-.15c0-.08.05-.14.16-.17s-.06-.05-.06-.08a.14.14,0,0,1,0-.06l.08,0A.2.2,0,0,1,14.34,13.77Zm.21.47-.11,0a.09.09,0,0,0,0,.08c0,.06.06.1.18.1a.26.26,0,0,0,.14,0,.08.08,0,0,0,0-.07.07.07,0,0,0-.06-.07A.33.33,0,0,0,14.55,14.24Zm0-.58a.1.1,0,0,0-.09,0,.09.09,0,0,0,0,.08.11.11,0,0,0,0,.09.13.13,0,1,0,.09-.21Z"/><path class="cls-2" d="M16,13.73v.48h-.13v-.37a.28.28,0,0,0,0-.15.12.12,0,0,0-.1,0l-.08,0-.08.07v.48h-.13v-.66h.13v.08a.32.32,0,0,1,.2-.1.21.21,0,0,1,.19.12.29.29,0,0,1,.22-.12.24.24,0,0,1,.16.07.34.34,0,0,1,.06.22v.39h-.13v-.39a.23.23,0,0,0,0-.13.13.13,0,0,0-.1,0A.19.19,0,0,0,16,13.73Z"/><path class="cls-2" d="M17,14.21v-.09l-.1.07a.19.19,0,0,1-.1,0,.21.21,0,0,1-.2-.12.36.36,0,0,1,0-.18v-.37h.13v.37a.28.28,0,0,0,0,.15.16.16,0,0,0,.11,0A.21.21,0,0,0,17,14v-.47h.13v.66Z"/><path class="cls-2" d="M17.31,14.16V14l.11.06a.2.2,0,0,0,.1,0,.1.1,0,0,0,.07,0s0,0,0,0a.08.08,0,0,0,0,0l-.08-.06a.41.41,0,0,1-.17-.12.13.13,0,0,1,0-.1.16.16,0,0,1,.06-.13.25.25,0,0,1,.15-.05.39.39,0,0,1,.2.06v.13a.37.37,0,0,0-.19-.07h-.06s0,0,0,.05a0,0,0,0,0,0,0l.07.05.05,0c.11.06.16.13.16.2a.18.18,0,0,1-.06.14.28.28,0,0,1-.16.05l-.11,0A.3.3,0,0,1,17.31,14.16Z"/><path class="cls-2" d="M18,13.27l.05,0a.09.09,0,0,1,0,.06.05.05,0,0,1,0,.05s0,0-.05,0,0,0,0,0a.05.05,0,0,1,0-.05.09.09,0,0,1,0-.06Zm-.07.28h.13v.66h-.13Z"/><path class="cls-2" d="M18.76,14.05v.13a.71.71,0,0,1-.2,0,.32.32,0,0,1-.24-.09.37.37,0,0,1-.09-.25.39.39,0,0,1,.08-.25.33.33,0,0,1,.24-.1h.09l.1,0v.14a.35.35,0,0,0-.18-.06.2.2,0,0,0-.15.06.25.25,0,0,0-.05.16.23.23,0,0,0,.06.16.21.21,0,0,0,.16.06A.49.49,0,0,0,18.76,14.05Z"/><path class="cls-2" d="M20.35,8.41v7.18H3.65V8.41h16.7m.12-.11H3.53v7.4H20.47V8.3Z"/></g></g></svg>