<svg xmlns="http://www.w3.org/2000/svg" viewBox="0 0 40 40"><defs><style>.cls-1{fill:#6c1d55;}.cls-2{fill:#fff;}</style></defs><g id="Calque_2" data-name="Calque 2"><g id="Calque_1-2" data-name="Calque 1"><circle class="cls-1" cx="20" cy="20" r="20"/><path class="cls-2" d="M13.13,7.64a9.64,9.64,0,0,0-2.85,4.43c-.86,3,.37,5.7,2,9.44a31,31,0,0,0,3.57,6c2.28,3.11,3.76,4.1,4.46,4.51a9.58,9.58,0,0,0,3.13,1.24,7,7,0,0,0,3.9-.2l.39-.17L23.2,26.79a1.25,1.25,0,0,1-.55.38,1.69,1.69,0,0,1-1.29-.29c-1.67-1-4.26-5.34-5.45-8.39A10.58,10.58,0,0,1,15.46,17c-.26-1.07-.19-1.41-.09-1.64a1.64,1.64,0,0,1,.74-.76Z"/><path class="cls-2" d="M16.12,6.74c.4.23.63.69,1.09,1.62.08.17.27.61.64,1.49.2.47.28.67.38.92a9.71,9.71,0,0,1,.39,1.14c.3,1.09.18,1.52.05,1.78l-.05.11c-.47.73-1.71.65-1.95.63l-3-7.12a1.94,1.94,0,0,1,.87-.68A2.06,2.06,0,0,1,16.12,6.74Z"/><path class="cls-2" d="M25.87,25.25c.44.13.77.53,1.43,1.33.12.14.4.52,1,1.29.31.41.44.59.59.81a10.58,10.58,0,0,1,.64,1c.55,1,.53,1.45.47,1.72a.53.53,0,0,1,0,.12c-.28.82-1.51,1-1.75,1.07l-4.58-6.23a1.91,1.91,0,0,1,.69-.85A2,2,0,0,1,25.87,25.25Z"/></g></g></svg>