<svg xmlns="http://www.w3.org/2000/svg" viewBox="0 0 100 43.75"><defs><style>.cls-1{fill:#6c1d55;}</style></defs><g id="Calque_2" data-name="Calque 2"><g id="Calque_1-2" data-name="Calque 1"><path class="cls-1" d="M15.4,9.63h1.87l8.36,18.74H22.9l-2.48-5.52h-8l-2.33,5.52H7.39Zm3.92,10.84-3-6.75-2.79,6.75Z"/><path class="cls-1" d="M42.08,9.73h2.5V28.37H41.9V13.87l-5.73,7.2h-.5l-5.79-7.2v14.5H27.21V9.73h2.52l6.2,7.66Z"/><path class="cls-1" d="M54.08,28.37H47.77V9.73h4.88a8.62,8.62,0,0,1,3.61.62,4.47,4.47,0,0,1,2.65,4.22,4.06,4.06,0,0,1-2.84,3.94,5.82,5.82,0,0,1,3.25,1.68,4.39,4.39,0,0,1,1.2,3.1,4.5,4.5,0,0,1-.73,2.54,5.35,5.35,0,0,1-2.15,1.83A8,8,0,0,1,54.08,28.37ZM52.73,12.11H50.44v5.6h1.77a4.52,4.52,0,0,0,3-.81,2.73,2.73,0,0,0,.9-2.11Q56.15,12.11,52.73,12.11Zm.2,8H50.44V26h2.63a8.49,8.49,0,0,0,3-.34,2.79,2.79,0,0,0,1.25-1.06,2.71,2.71,0,0,0,.47-1.54,2.64,2.64,0,0,0-.5-1.57,2.91,2.91,0,0,0-1.42-1.05A8.89,8.89,0,0,0,52.93,20.08Z"/><path class="cls-1" d="M63,9.73H73.58v2.38h-7.9v5.68h7.63v2.39H65.68V26h8.15v2.37H63Z"/><path class="cls-1" d="M77.3,28.37V9.73H82a6.76,6.76,0,0,1,4.49,1.4,4.7,4.7,0,0,1,1.66,3.79,4.9,4.9,0,0,1-.81,2.82,5.92,5.92,0,0,1-2.18,1.93l4.72,8.7H86.67l-4.14-8.11H80v8.11ZM80.77,12H80v5.88h1a7.64,7.64,0,0,0,2.79-.34,2.65,2.65,0,0,0,1.17-1.05,3.06,3.06,0,0,0,.42-1.6,2.88,2.88,0,0,0-.47-1.59,2.51,2.51,0,0,0-1.31-1A9.73,9.73,0,0,0,80.77,12Z"/><path class="cls-1" d="M45.16,32.08V34.9h-.78V32.74a1.65,1.65,0,0,0-.17-.9.69.69,0,0,0-.6-.26,1,1,0,0,0-.45.11,1.81,1.81,0,0,0-.45.39V34.9h-.77V31h.77v.51a1.66,1.66,0,0,1,1.15-.58,1.25,1.25,0,0,1,1.14.7,1.74,1.74,0,0,1,1.29-.71,1.19,1.19,0,0,1,.93.41,1.91,1.91,0,0,1,.37,1.27V34.9h-.77V32.6a1.24,1.24,0,0,0-.2-.75.67.67,0,0,0-.57-.25A1.17,1.17,0,0,0,45.16,32.08Z"/><path class="cls-1" d="M50.61,31a2,2,0,0,1,1.48.57A1.92,1.92,0,0,1,52.67,33a1.8,1.8,0,0,1-.59,1.39,2.13,2.13,0,0,1-1.5.56,2,2,0,0,1-1.46-.57A1.86,1.86,0,0,1,48.53,33a1.92,1.92,0,0,1,.59-1.42A2.08,2.08,0,0,1,50.61,31Zm0,.69a1.23,1.23,0,0,0-.91.36,1.29,1.29,0,0,0-.35.93,1.23,1.23,0,0,0,.36.91,1.29,1.29,0,0,0,.93.35,1.26,1.26,0,0,0,.93-.36,1.33,1.33,0,0,0,0-1.83A1.32,1.32,0,0,0,50.57,31.7Z"/><path class="cls-1" d="M56,31h.83l-1.71,4h-.26l-1.76-4H54l1,2.39Z"/><path class="cls-1" d="M57.94,29.38a.42.42,0,0,1,.32.13.43.43,0,0,1,.14.32.45.45,0,0,1-.14.32.43.43,0,0,1-.32.14.43.43,0,0,1-.31-.14.45.45,0,0,1-.14-.32.43.43,0,0,1,.14-.31A.39.39,0,0,1,57.94,29.38ZM57.56,31h.77V34.9h-.77Z"/><path class="cls-1" d="M60.32,31v.5a1.53,1.53,0,0,1,1.17-.57,1.27,1.27,0,0,1,.68.19,1.22,1.22,0,0,1,.47.51,2.45,2.45,0,0,1,.16,1V34.9H62V32.69a1.51,1.51,0,0,0-.18-.85.69.69,0,0,0-.61-.26,1.1,1.1,0,0,0-.92.54V34.9h-.79V31Z"/><path class="cls-1" d="M63.79,32.36a1.21,1.21,0,0,1,.45-1A2,2,0,0,1,65.48,31h1.6v.6H66.3a1.75,1.75,0,0,1,.32.43,1,1,0,0,1,.08.43,1.14,1.14,0,0,1-.17.6,1.27,1.27,0,0,1-.44.45,2.84,2.84,0,0,1-.9.25c-.29,0-.43.14-.43.3a.25.25,0,0,0,.16.22,2.32,2.32,0,0,0,.59.18,6,6,0,0,1,.92.24,1.31,1.31,0,0,1,.37.26,1,1,0,0,1,.28.7,1,1,0,0,1-.5.88,2.29,2.29,0,0,1-1.31.33,2.36,2.36,0,0,1-1.33-.33,1,1,0,0,1-.5-.89c0-.53.33-.87,1-1-.26-.16-.39-.33-.39-.49a.45.45,0,0,1,.17-.34,1,1,0,0,1,.45-.22A1.29,1.29,0,0,1,63.79,32.36Zm1.26,2.72a1.09,1.09,0,0,0-.63.17.48.48,0,0,0-.25.42q0,.6,1.08.6a1.68,1.68,0,0,0,.79-.15.46.46,0,0,0,.28-.43c0-.18-.11-.32-.35-.44A2.19,2.19,0,0,0,65.05,35.08Zm.18-3.4a.76.76,0,0,0-.53.21.7.7,0,0,0-.22.51.65.65,0,0,0,.22.5.86.86,0,0,0,1.09,0,.66.66,0,0,0,.21-.5.67.67,0,0,0-.22-.51A.79.79,0,0,0,65.23,31.68Z"/><path class="cls-1" d="M73.49,32.08V34.9h-.77V32.74a1.75,1.75,0,0,0-.17-.9.69.69,0,0,0-.61-.26,1,1,0,0,0-.44.11,2,2,0,0,0-.46.39V34.9h-.76V31H71v.51a1.69,1.69,0,0,1,1.15-.58,1.26,1.26,0,0,1,1.15.7,1.74,1.74,0,0,1,1.29-.71,1.22,1.22,0,0,1,.93.41,1.91,1.91,0,0,1,.36,1.27V34.9h-.77V32.6a1.24,1.24,0,0,0-.19-.75.7.7,0,0,0-.57-.25A1.2,1.2,0,0,0,73.49,32.08Z"/><path class="cls-1" d="M79.57,34.9v-.5a1.87,1.87,0,0,1-.56.42,1.45,1.45,0,0,1-.63.15,1.27,1.27,0,0,1-.68-.19,1.23,1.23,0,0,1-.47-.49,2.64,2.64,0,0,1-.15-1V31h.76v2.22a1.47,1.47,0,0,0,.18.85.71.71,0,0,0,.61.25,1.13,1.13,0,0,0,.94-.54V31h.77V34.9Z"/><path class="cls-1" d="M81.34,34.62v-.83a3,3,0,0,0,.67.37,1.39,1.39,0,0,0,.57.14.76.76,0,0,0,.41-.11.34.34,0,0,0,.17-.29.37.37,0,0,0-.11-.28,2.51,2.51,0,0,0-.48-.32,3.27,3.27,0,0,1-1-.71,1,1,0,0,1-.23-.64.9.9,0,0,1,.34-.73,1.4,1.4,0,0,1,.9-.28,2.4,2.4,0,0,1,1.17.32V32a2.3,2.3,0,0,0-1.12-.42.64.64,0,0,0-.36.1.3.3,0,0,0-.14.25.38.38,0,0,0,.13.26,2.28,2.28,0,0,0,.44.3l.27.15c.65.37,1,.77,1,1.22a1,1,0,0,1-.37.78,1.44,1.44,0,0,1-1,.31,2.33,2.33,0,0,1-.62-.08A4.29,4.29,0,0,1,81.34,34.62Z"/><path class="cls-1" d="M85.37,29.38a.42.42,0,0,1,.32.13.43.43,0,0,1,.14.32.45.45,0,0,1-.14.32.43.43,0,0,1-.32.14.43.43,0,0,1-.31-.14.45.45,0,0,1-.14-.32.43.43,0,0,1,.14-.31A.39.39,0,0,1,85.37,29.38ZM85,31h.77V34.9H85Z"/><path class="cls-1" d="M89.89,34v.76a3.07,3.07,0,0,1-1.13.22,2,2,0,0,1-1.45-.54A2,2,0,0,1,86.76,33a2.08,2.08,0,0,1,.53-1.48,1.8,1.8,0,0,1,1.39-.56,2.92,2.92,0,0,1,.54,0,3.18,3.18,0,0,1,.59.22V32a2,2,0,0,0-1.08-.37,1.1,1.1,0,0,0-.85.36,1.3,1.3,0,0,0-.34.93,1.26,1.26,0,0,0,.36.95,1.37,1.37,0,0,0,1,.35A2.55,2.55,0,0,0,89.89,34Z"/><path class="cls-1" d="M99.34.66V43.09H.66V.66H99.34M100,0H0V43.75H100V0Z"/></g></g></svg>